<?xml version="1.0" encoding="UTF-8"?>
<!DOCTYPE svg PUBLIC "-//W3C//DTD SVG 1.1//EN" "http://www.w3.org/Graphics/SVG/1.1/DTD/svg11.dtd">
<svg xmlns="http://www.w3.org/2000/svg" version="1.1" width="800px" height="800px" style="shape-rendering:geometricPrecision; text-rendering:geometricPrecision; image-rendering:optimizeQuality; fill-rule:evenodd; clip-rule:evenodd" xmlns:xlink="http://www.w3.org/1999/xlink">
<g><path style="opacity:0.999" fill="#0a4590" d="M 262.5,95.5 C 258.894,95.7892 255.394,95.4558 252,94.5C 251.831,78.3281 251.331,62.3281 250.5,46.5C 249.508,46.3284 248.842,46.6618 248.5,47.5C 246.565,48.1495 244.565,48.4828 242.5,48.5C 242.146,44.3628 242.646,40.3628 244,36.5C 245.789,34.771 247.956,34.1043 250.5,34.5C 250.787,30.2088 250.787,26.0421 250.5,22C 254.333,16.8333 258.833,12.3333 264,8.5C 270.491,7.34269 277.325,7.34269 284.5,8.5C 286.149,9.97379 287.149,11.8071 287.5,14C 284.462,23.5237 279.628,24.6904 273,17.5C 268.531,21.0636 266.698,25.7303 267.5,31.5C 269.143,31.5198 270.476,30.8532 271.5,29.5C 272.086,29.7093 272.586,30.0426 273,30.5C 275.804,28.6556 278.97,27.9889 282.5,28.5C 282.751,31.909 282.417,35.2423 281.5,38.5C 276.64,40.8314 271.973,42.8314 267.5,44.5C 266.574,60.8337 266.408,77.167 267,93.5C 265.53,94.2666 264.03,94.9332 262.5,95.5 Z"/></g>
<g><path style="opacity:1" fill="#054593" d="M 385.5,40.5 C 383.78,42.6581 382.947,45.3248 383,48.5C 382.912,54.4218 382.746,60.2552 382.5,66C 377.605,68.3941 373.105,67.8941 369,64.5C 368.693,53.4907 369.859,42.6573 372.5,32C 372.167,30.5 371.833,29 371.5,27.5C 367.557,30.6994 364.057,34.3661 361,38.5C 359.434,43.248 357.934,48.0813 356.5,53C 356.57,53.7648 356.903,54.2648 357.5,54.5C 356.558,59.7081 355.558,64.8748 354.5,70C 349.511,70.4993 344.511,70.6659 339.5,70.5C 339.457,61.4414 340.123,52.4414 341.5,43.5C 341.869,39.2325 342.869,35.2325 344.5,31.5C 346.135,27.7034 346.802,23.2034 346.5,18C 355.549,13.5577 360.049,16.391 360,26.5C 362.557,27.6457 363.89,26.6457 364,23.5C 369.05,17.0639 375.55,13.8972 383.5,14C 384,14.5 384.5,15 385,15.5C 385.5,23.8267 385.666,32.16 385.5,40.5 Z"/></g>
<g><path style="opacity:1" fill="#0a4590" d="M 412.5,-0.5 C 415.5,-0.5 418.5,-0.5 421.5,-0.5C 422.587,1.98426 423.253,4.65093 423.5,7.5C 422.652,12.1668 422.152,16.8334 422,21.5C 422.333,19.8333 422.667,18.1667 423,16.5C 424.694,18.6555 426.527,18.4889 428.5,16C 434.157,15.5006 439.824,15.3339 445.5,15.5C 445.666,23.5069 445.5,31.5069 445,39.5C 444.209,40.745 443.709,42.0783 443.5,43.5C 442.996,46.4525 441.996,49.2858 440.5,52C 445.572,68.0932 440.239,73.5932 424.5,68.5C 423.429,58.8565 424.762,49.6898 428.5,41C 427.67,39.5349 427.504,38.0349 428,36.5C 429.003,38.9351 429.503,38.6018 429.5,35.5C 429.608,32.1336 428.942,31.8003 427.5,34.5C 420.787,39.894 416.454,46.894 414.5,55.5C 413.781,57.0913 412.781,58.5913 411.5,60C 411.704,62.6213 411.704,65.4547 411.5,68.5C 406.452,69.994 401.452,69.8273 396.5,68C 395.866,65.9255 395.532,63.7588 395.5,61.5C 397.793,48.3246 400.626,34.3246 404,19.5C 404.333,20.5 404.667,21.5 405,22.5C 405.358,15.7347 406.358,9.06806 408,2.5C 409.632,1.47182 411.132,0.471819 412.5,-0.5 Z"/></g>
<g><path style="opacity:0.643" fill="#133d7a" d="M 508.5,28.5 C 508.649,27.448 508.483,26.448 508,25.5C 507.667,25.8333 507.333,26.1667 507,26.5C 506.228,25.1509 505.061,24.3176 503.5,24C 505.246,23.5291 506.913,22.8624 508.5,22C 504.238,19.392 499.738,18.892 495,20.5C 489.39,18.1461 483.557,17.9794 477.5,20C 475.697,20.6368 474.364,21.8035 473.5,23.5C 473.167,22.8333 472.833,22.1667 472.5,21.5C 470.807,24.1897 468.473,26.1897 465.5,27.5C 461.486,34.2015 457.486,40.8682 453.5,47.5C 453.814,43.27 454.98,39.27 457,35.5C 462.453,27.2965 469.62,20.9631 478.5,16.5C 483.364,17.8123 488.197,17.8123 493,16.5C 497.988,18.0332 503.154,19.0332 508.5,19.5C 511.14,22.5774 511.14,25.5774 508.5,28.5 Z"/></g>
<g><path style="opacity:0.999" fill="#094591" d="M 220.5,41.5 C 224.176,41.3834 227.343,40.05 230,37.5C 231.722,37.9615 233.555,38.1282 235.5,38C 236.46,41.73 236.793,45.5633 236.5,49.5C 231.951,50.3344 227.451,52.3344 223,55.5C 222.179,62.3464 222.346,69.013 223.5,75.5C 223.707,84.663 225.04,93.663 227.5,102.5C 226.724,104.356 225.391,105.689 223.5,106.5C 219.217,107.492 214.884,107.826 210.5,107.5C 210.81,104.287 210.477,101.287 209.5,98.5C 209.013,85.331 207.346,72.331 204.5,59.5C 203.281,60.2634 202.281,61.2634 201.5,62.5C 200.264,61.7542 198.93,61.4208 197.5,61.5C 197.629,57.1216 197.629,52.9549 197.5,49C 199.833,47.957 202.166,47.1237 204.5,46.5C 205.366,27.151 215.699,17.9843 235.5,19C 238.693,23.9215 237.693,27.7548 232.5,30.5C 230.815,26.749 228.149,25.749 224.5,27.5C 219.65,31.2225 218.316,35.8891 220.5,41.5 Z"/></g>
<g><path style="opacity:1" fill="#094590" d="M 508.5,28.5 C 507.361,31.0037 506.694,33.6703 506.5,36.5C 504.383,40.5497 502.716,44.883 501.5,49.5C 500.967,52.1215 499.967,54.6215 498.5,57C 499.78,63.1726 499.78,69.3393 498.5,75.5C 493.786,75.8266 489.12,75.4933 484.5,74.5C 481.949,71.3306 480.449,67.6639 480,63.5C 478.524,66.793 476.024,68.793 472.5,69.5C 471.855,70.646 471.022,71.646 470,72.5C 465.489,72.5542 460.989,72.3875 456.5,72C 455.333,70.8333 454.167,69.6667 453,68.5C 452.205,61.4197 452.372,54.4197 453.5,47.5C 457.486,40.8682 461.486,34.2015 465.5,27.5C 468.473,26.1897 470.807,24.1897 472.5,21.5C 472.833,22.1667 473.167,22.8333 473.5,23.5C 474.364,21.8035 475.697,20.6368 477.5,20C 483.557,17.9794 489.39,18.1461 495,20.5C 499.738,18.892 504.238,19.392 508.5,22C 506.913,22.8624 505.246,23.5291 503.5,24C 505.061,24.3176 506.228,25.1509 507,26.5C 507.333,26.1667 507.667,25.8333 508,25.5C 508.483,26.448 508.649,27.448 508.5,28.5 Z M 472.5,43.5 C 473.901,37.2649 477.401,32.5983 483,29.5C 485.757,31.2043 487.09,33.5377 487,36.5C 482.802,43.7055 477.469,50.0388 471,55.5C 470.764,53.236 470.264,51.0693 469.5,49C 470.869,47.2811 471.869,45.4478 472.5,43.5 Z"/></g>
<g><path style="opacity:0.549" fill="#17407c" d="M 220.5,41.5 C 218.316,35.8891 219.65,31.2225 224.5,27.5C 228.149,25.749 230.815,26.749 232.5,30.5C 237.693,27.7548 238.693,23.9215 235.5,19C 215.699,17.9843 205.366,27.151 204.5,46.5C 203.03,36.8757 205.364,28.709 211.5,22C 215.791,20.3188 219.958,18.4855 224,16.5C 227.667,17.8333 231.333,17.8333 235,16.5C 236.11,18.0368 237.61,18.7035 239.5,18.5C 240.793,31.0975 236.127,34.5975 225.5,29C 221.009,31.9328 219.342,36.0995 220.5,41.5 Z"/></g>
<g><path style="opacity:0.992" fill="#1a4584" d="M 385.5,40.5 C 385.666,32.16 385.5,23.8267 385,15.5C 384.5,15 384,14.5 383.5,14C 375.55,13.8972 369.05,17.0639 364,23.5C 363.89,26.6457 362.557,27.6457 360,26.5C 360.049,16.391 355.549,13.5577 346.5,18C 346.802,23.2034 346.135,27.7034 344.5,31.5C 344.5,26.1667 344.5,20.8333 344.5,15.5C 346.103,15.6882 347.437,15.1882 348.5,14C 352.444,13.0105 356.111,13.5105 359.5,15.5C 360.105,18.3043 360.938,20.971 362,23.5C 367.164,13.0827 375.164,10.0827 386,14.5C 387.621,23.3174 387.454,31.9841 385.5,40.5 Z"/></g>
<g><path style="opacity:0.031" fill="#01134d" d="M 361.5,19.5 C 362.833,20.1667 362.833,20.1667 361.5,19.5 Z"/></g>
<g><path style="opacity:0.999" fill="#09448f" d="M 318.5,73.5 C 309.96,73.9386 301.293,73.4386 292.5,72C 291.255,68.6277 289.588,65.461 287.5,62.5C 288.052,55.6091 289.052,48.7758 290.5,42C 290.333,41.5 290.167,41 290,40.5C 288.907,43.3093 287.74,45.976 286.5,48.5C 287.251,42.5692 289.251,37.0692 292.5,32C 300.126,18.3465 311.46,13.6798 326.5,18C 332.191,29.8592 330.024,40.0258 320,48.5C 319.667,48.1667 319.333,47.8333 319,47.5C 317.493,49.008 315.827,50.3413 314,51.5C 313.667,51.1667 313.333,50.8333 313,50.5C 311.4,51.8659 309.567,52.8659 307.5,53.5C 303.454,56.8925 303.788,60.0591 308.5,63C 311.38,63.6841 314.213,63.5174 317,62.5C 319.933,60.6393 322.433,58.3059 324.5,55.5C 325.833,56.8333 327.167,56.8333 328.5,55.5C 331.752,62.8265 329.919,68.4932 323,72.5C 322.667,72.1667 322.333,71.8333 322,71.5C 321.29,72.9733 320.124,73.6399 318.5,73.5 Z M 313.5,29.5 C 314.075,36.2651 311.075,40.5984 304.5,42.5C 303.926,36.8598 305.926,32.3598 310.5,29C 311.749,28.2599 312.749,28.4265 313.5,29.5 Z"/></g>
<g><path style="opacity:0.031" fill="#01134d" d="M 248.5,32.5 C 249.833,33.1667 249.833,33.1667 248.5,32.5 Z"/></g>
<g><path style="opacity:1" fill="#0a448f" d="M 538.5,41.5 C 536.521,45.0298 534.688,48.6964 533,52.5C 532.265,54.8713 531.432,57.2046 530.5,59.5C 530.833,59.8333 531.167,60.1667 531.5,60.5C 536.485,56.0152 541.319,51.3485 546,46.5C 549.136,41.5492 551.303,36.2158 552.5,30.5C 557.325,28.9424 561.825,29.609 566,32.5C 566.667,36.8333 566.667,41.1667 566,45.5C 563.194,52.2505 560.194,58.9171 557,65.5C 556.506,67.1341 556.34,68.8008 556.5,70.5C 555.804,74.2315 555.138,78.0648 554.5,82C 555.552,83.7165 554.886,84.7165 552.5,85C 548.095,85.6959 543.761,85.3626 539.5,84C 538.355,80.9809 537.355,77.4809 536.5,73.5C 529.731,80.0163 521.731,82.1829 512.5,80C 512,79.5 511.5,79 511,78.5C 509.628,73.9354 509.128,69.4354 509.5,65C 512.745,58.8448 515.745,52.5115 518.5,46C 521.369,39.3471 523.369,32.5138 524.5,25.5C 529.88,25.3243 535.213,25.6576 540.5,26.5C 540.909,31.6923 540.242,36.6923 538.5,41.5 Z"/></g>
<g><path style="opacity:0.031" fill="#01134d" d="M 567.5,33.5 C 568.641,36.6399 568.808,39.9733 568,43.5C 567.502,40.1832 567.335,36.8499 567.5,33.5 Z"/></g>
<g><path style="opacity:0.031" fill="#01134d" d="M 427.5,34.5 C 428.833,35.1667 428.833,35.1667 427.5,34.5 Z"/></g>
<g><path style="opacity:0.031" fill="#01134d" d="M 506.5,36.5 C 507.833,37.1667 507.833,37.1667 506.5,36.5 Z"/></g>
<g><path style="opacity:0.239" fill="#0c2c5f" d="M 313.5,29.5 C 316.369,35.3413 314.369,39.8413 307.5,43C 306.251,43.7401 305.251,43.5735 304.5,42.5C 311.075,40.5984 314.075,36.2651 313.5,29.5 Z"/></g>
<g><path style="opacity:0.031" fill="#01134d" d="M 341.5,43.5 C 340.402,42.3991 340.235,41.0657 341,39.5C 341.49,40.7932 341.657,42.1266 341.5,43.5 Z"/></g>
<g><path style="opacity:0.031" fill="#01134d" d="M 240.5,40.5 C 241.629,42.6282 241.796,44.9615 241,47.5C 240.503,45.1902 240.337,42.8568 240.5,40.5 Z"/></g>
<g><path style="opacity:0.031" fill="#01134d" d="M 591.5,41.5 C 594.304,40.3622 597.304,40.1955 600.5,41C 597.518,41.498 594.518,41.6646 591.5,41.5 Z"/></g>
<g><path style="opacity:0.031" fill="#01134d" d="M 538.5,41.5 C 539.833,42.1667 539.833,42.1667 538.5,41.5 Z"/></g>
<g><path style="opacity:0.031" fill="#01134d" d="M 443.5,43.5 C 444.598,44.6009 444.765,45.9343 444,47.5C 443.51,46.2068 443.343,44.8734 443.5,43.5 Z"/></g>
<g><path style="opacity:0.031" fill="#01134d" d="M 385.5,44.5 C 386.525,44.8966 386.692,45.5632 386,46.5C 385.536,45.9056 385.369,45.2389 385.5,44.5 Z"/></g>
<g><path style="opacity:0.999" fill="#0c448d" d="M 584.5,42.5 C 592.21,42.5677 599.71,42.5677 607,42.5C 612.006,43.3416 614.839,46.3416 615.5,51.5C 614.844,53.4534 614.511,55.4534 614.5,57.5C 612.409,57.3184 610.409,57.6518 608.5,58.5C 604.162,56.5059 600.162,54.3393 596.5,52C 595.687,53.3139 594.687,54.4805 593.5,55.5C 596.5,60.0148 599.334,64.6814 602,69.5C 604.815,80.8666 600.982,88.8666 590.5,93.5C 582.658,94.6739 575.158,94.6739 568,93.5C 565.126,91.8049 562.459,89.8049 560,87.5C 558.556,77.9523 562.39,73.7856 571.5,75C 572.537,79.5372 575.204,82.7039 579.5,84.5C 581.685,83.6867 583.352,82.1867 584.5,80C 582.983,75.8948 580.983,72.0615 578.5,68.5C 577.167,62.1667 577.167,55.8333 578.5,49.5C 580.891,47.4471 582.891,45.1137 584.5,42.5 Z"/></g>
<g><path style="opacity:0.031" fill="#01134d" d="M 248.5,47.5 C 249.833,48.1667 249.833,48.1667 248.5,47.5 Z"/></g>
<g><path style="opacity:0.478" fill="#17417e" d="M 385.5,40.5 C 386.405,41.9643 386.405,43.2976 385.5,44.5C 382.962,51.0112 382.962,57.6779 385.5,64.5C 385.32,65.5539 384.987,66.5539 384.5,67.5C 378.445,70.2268 372.612,69.8935 367,66.5C 366.833,63.8333 366.667,61.1667 366.5,58.5C 367.997,53.5277 369.331,45.8611 370.5,35.5C 370.192,34.6919 369.692,34.0253 369,33.5C 367.306,34.6988 365.806,36.0322 364.5,37.5C 361.799,42.8893 359.466,48.556 357.5,54.5C 356.903,54.2648 356.57,53.7648 356.5,53C 357.934,48.0813 359.434,43.248 361,38.5C 364.057,34.3661 367.557,30.6994 371.5,27.5C 371.833,29 372.167,30.5 372.5,32C 369.859,42.6573 368.693,53.4907 369,64.5C 373.105,67.8941 377.605,68.3941 382.5,66C 382.746,60.2552 382.912,54.4218 383,48.5C 382.947,45.3248 383.78,42.6581 385.5,40.5 Z"/></g>
<g><path style="opacity:0.031" fill="#01134d" d="M 364.5,37.5 C 365.833,38.1667 365.833,38.1667 364.5,37.5 Z"/></g>
<g><path style="opacity:0.031" fill="#01134d" d="M 501.5,49.5 C 502.598,50.6009 502.765,51.9343 502,53.5C 501.51,52.2068 501.343,50.8734 501.5,49.5 Z"/></g>
<g><path style="opacity:0.031" fill="#01134d" d="M 195.5,51.5 C 196.638,54.3035 196.805,57.3035 196,60.5C 195.502,57.5184 195.335,54.5184 195.5,51.5 Z"/></g>
<g><path style="opacity:0.086" fill="#011447" d="M 250.5,46.5 C 251.331,62.3281 251.831,78.3281 252,94.5C 255.394,95.4558 258.894,95.7892 262.5,95.5C 258.767,96.821 254.934,96.821 251,95.5C 250.5,79.1701 250.333,62.8367 250.5,46.5 Z"/></g>
<g><path style="opacity:0.999" fill="#0a448f" d="M 192.5,91.5 C 195.149,93.5586 195.982,96.2253 195,99.5C 193.27,101.402 191.437,103.069 189.5,104.5C 184.261,105.466 180.261,103.8 177.5,99.5C 175.119,104.165 172.619,108.831 170,113.5C 168.833,114.667 167.667,115.833 166.5,117C 163.007,117.332 159.507,117.499 156,117.5C 150.474,107.046 147.308,96.0461 146.5,84.5C 146.409,79.9189 145.076,75.7523 142.5,72C 141.574,69.159 141.574,65.9923 142.5,62.5C 144.391,60.9837 146.391,59.6504 148.5,58.5C 150.963,58.5866 153.463,58.5866 156,58.5C 157.925,60.8112 159.092,63.4779 159.5,66.5C 160.634,77.4532 162.801,87.7865 166,97.5C 167.202,95.3225 167.702,92.9892 167.5,90.5C 168.532,77.6498 168.698,64.6498 168,51.5C 170.48,50.4725 173.48,49.8058 177,49.5C 180.534,49.2865 183.367,50.4532 185.5,53C 185.167,53.3333 184.833,53.6667 184.5,54C 186.161,62.9613 187.828,71.9613 189.5,81C 190.629,84.1637 191.963,87.1637 193.5,90C 192.944,90.3826 192.611,90.8826 192.5,91.5 Z"/></g>
<g><path style="opacity:0.031" fill="#01134d" d="M 414.5,55.5 C 415.525,55.8966 415.692,56.5632 415,57.5C 414.536,56.9056 414.369,56.2389 414.5,55.5 Z"/></g>
<g><path style="opacity:0.999" fill="#0a448f" d="M 120.5,95.5 C 118.236,103.903 116.236,112.57 114.5,121.5C 120.023,119.55 125.357,117.216 130.5,114.5C 134.715,113.202 138.882,113.202 143,114.5C 143.789,118.091 143.622,121.591 142.5,125C 130.852,128.711 119.852,134.378 109.5,142C 105.809,143.845 102.143,143.845 98.5,142C 97.4986,137.083 97.1653,131.916 97.5,126.5C 101.298,110.358 105.298,94.1909 109.5,78C 109.167,77.5 108.833,77 108.5,76.5C 103.346,79.7921 98.0131,82.7921 92.5,85.5C 91.3044,85.1543 91.3044,84.6543 92.5,84C 90.3309,85.1138 88.4976,84.6138 87,82.5C 86.3333,79.1667 86.3333,75.8333 87,72.5C 98.3609,68.4702 109.194,62.6368 119.5,55C 121.473,54.5045 123.473,54.3379 125.5,54.5C 125.505,57.5318 125.838,60.5318 126.5,63.5C 124.497,74.1758 122.497,84.8425 120.5,95.5 Z"/></g>
<g><path style="opacity:0.031" fill="#01134d" d="M 186.5,59.5 C 187.833,60.1667 187.833,60.1667 186.5,59.5 Z"/></g>
<g><path style="opacity:0.031" fill="#01134d" d="M 385.5,60.5 C 386.833,61.1667 386.833,61.1667 385.5,60.5 Z"/></g>
<g><path style="opacity:0.031" fill="#01134d" d="M 559.5,61.5 C 560.833,62.1667 560.833,62.1667 559.5,61.5 Z"/></g>
<g><path style="opacity:0.999" fill="#0c4690" d="M 645.5,110.5 C 637.833,111.833 630.167,111.833 622.5,110.5C 622.167,110.5 621.833,110.5 621.5,110.5C 609.291,104.676 605.957,95.3425 611.5,82.5C 612.941,81.1349 614.274,79.6349 615.5,78C 615.167,77.6667 614.833,77.3333 614.5,77C 618.036,74.2985 621.036,71.1319 623.5,67.5C 625.511,65.6609 627.844,64.1609 630.5,63C 641.876,59.166 652.876,59.8327 663.5,65C 666.572,76.185 662.905,84.185 652.5,89C 644.59,91.0309 636.756,90.8643 629,88.5C 625.173,93.5099 625.673,97.8432 630.5,101.5C 636.128,102.495 641.794,102.829 647.5,102.5C 647.663,104.857 647.497,107.19 647,109.5C 646.617,110.056 646.117,110.389 645.5,110.5 Z M 643.5,70.5 C 645.199,70.3398 646.866,70.5065 648.5,71C 647.107,72.1711 646.273,73.6711 646,75.5C 643.442,79.2116 639.942,80.3783 635.5,79C 638.343,76.3235 641.01,73.4901 643.5,70.5 Z"/></g>
<g><path style="opacity:0.031" fill="#01134d" d="M 337.5,63.5 C 338.833,64.1667 338.833,64.1667 337.5,63.5 Z"/></g>
<g><path style="opacity:0.031" fill="#01134d" d="M 356.5,63.5 C 357.525,63.8966 357.692,64.5632 357,65.5C 356.536,64.9056 356.369,64.2389 356.5,63.5 Z"/></g>
<g><path style="opacity:0.031" fill="#01134d" d="M 386.5,64.5 C 387.833,65.1667 387.833,65.1667 386.5,64.5 Z"/></g>
<g><path style="opacity:0.031" fill="#01134d" d="M 356.5,66.5 C 357.525,66.8966 357.692,67.5632 357,68.5C 356.536,67.9056 356.369,67.2389 356.5,66.5 Z"/></g>
<g><path style="opacity:0.031" fill="#01134d" d="M 556.5,70.5 C 557.525,70.8966 557.692,71.5632 557,72.5C 556.536,71.9056 556.369,71.2389 556.5,70.5 Z"/></g>
<g><path style="opacity:0.031" fill="#01134d" d="M 84.5,73.5 C 85.6225,75.2884 85.7891,77.2884 85,79.5C 84.5045,77.5273 84.3379,75.5273 84.5,73.5 Z"/></g>
<g><path style="opacity:0.031" fill="#01134d" d="M 223.5,75.5 C 223.369,74.7611 223.536,74.0944 224,73.5C 224.692,74.4368 224.525,75.1034 223.5,75.5 Z"/></g>
<g><path style="opacity:1" fill="#194483" d="M 318.5,73.5 C 310.359,75.5313 302.026,76.0313 293.5,75C 290.538,72.7134 288.371,69.8801 287,66.5C 286.501,60.5092 286.334,54.5092 286.5,48.5C 287.74,45.976 288.907,43.3093 290,40.5C 290.167,41 290.333,41.5 290.5,42C 289.052,48.7758 288.052,55.6091 287.5,62.5C 289.588,65.461 291.255,68.6277 292.5,72C 301.293,73.4386 309.96,73.9386 318.5,73.5 Z"/></g>
<g><path style="opacity:0.031" fill="#01134d" d="M 461.5,74.5 C 462.601,73.4017 463.934,73.235 465.5,74C 464.207,74.49 462.873,74.6567 461.5,74.5 Z"/></g>
<g><path style="opacity:0.239" fill="#0a2a5e" d="M 623.5,67.5 C 621.036,71.1319 618.036,74.2985 614.5,77C 614.833,77.3333 615.167,77.6667 615.5,78C 614.274,79.6349 612.941,81.1349 611.5,82.5C 605.957,95.3425 609.291,104.676 621.5,110.5C 616.674,109.836 612.674,107.67 609.5,104C 604.796,88.2823 609.463,76.1157 623.5,67.5 Z"/></g>
<g><path style="opacity:0.031" fill="#01134d" d="M 162.5,80.5 C 163.833,81.1667 163.833,81.1667 162.5,80.5 Z"/></g>
<g><path style="opacity:0.031" fill="#01134d" d="M 518.5,82.5 C 519.251,81.4265 520.251,81.2599 521.5,82C 520.552,82.4828 519.552,82.6495 518.5,82.5 Z"/></g>
<g><path style="opacity:0.031" fill="#01134d" d="M 146.5,84.5 C 146.631,85.2389 146.464,85.9056 146,86.5C 145.308,85.5632 145.475,84.8966 146.5,84.5 Z"/></g>
<g><path style="opacity:0.031" fill="#01134d" d="M 545.5,86.5 C 546.833,87.1667 546.833,87.1667 545.5,86.5 Z"/></g>
<g><path style="opacity:0.031" fill="#01134d" d="M 547.5,86.5 C 548.833,87.1667 548.833,87.1667 547.5,86.5 Z"/></g>
<g><path style="opacity:0.031" fill="#01134d" d="M 167.5,90.5 C 166.427,89.7494 166.26,88.7494 167,87.5C 167.483,88.448 167.649,89.448 167.5,90.5 Z"/></g>
<g><path style="opacity:0.086" fill="#021448" d="M 712.5,89.5 C 706.904,87.8998 701.571,88.5665 696.5,91.5C 698.796,88.0938 702.129,86.7605 706.5,87.5C 708.952,87.5391 710.952,88.2057 712.5,89.5 Z"/></g>
<g><path style="opacity:0.031" fill="#01134d" d="M 268.5,90.5 C 269.833,91.1667 269.833,91.1667 268.5,90.5 Z"/></g>
<g><path style="opacity:0.999" fill="#094590" d="M 693.5,89.5 C 693.821,91.0481 694.821,91.7148 696.5,91.5C 701.571,88.5665 706.904,87.8998 712.5,89.5C 718.298,92.7666 719.798,97.4333 717,103.5C 710.405,113.03 703.572,122.364 696.5,131.5C 694.62,133.755 693.62,136.422 693.5,139.5C 689.116,139.826 684.783,139.492 680.5,138.5C 678.335,137.12 678.001,135.453 679.5,133.5C 679.274,130.751 679.607,128.084 680.5,125.5C 684.826,119.505 689.16,113.505 693.5,107.5C 693.744,104.737 695.077,102.571 697.5,101C 697.167,100.833 696.833,100.667 696.5,100.5C 684.232,106.925 673.898,115.758 665.5,127C 660.743,127.415 656.41,126.248 652.5,123.5C 651.548,121.955 651.215,120.288 651.5,118.5C 658.298,110.984 665.131,103.317 672,95.5C 675.858,90.6299 679.358,85.4632 682.5,80C 690.281,78.5429 693.947,81.7096 693.5,89.5 Z"/></g>
<g><path style="opacity:0.031" fill="#01134d" d="M 368.5,93.5 C 369.833,94.1667 369.833,94.1667 368.5,93.5 Z"/></g>
<g><path style="opacity:0.341" fill="#124279" d="M 374.5,95.5 C 401.012,94.2179 427.678,94.3846 454.5,96C 459.763,96.778 464.763,97.9447 469.5,99.5C 437.935,96.0299 406.268,94.6966 374.5,95.5 Z"/></g>
<g><path style="opacity:0.031" fill="#01134d" d="M 120.5,95.5 C 121.833,96.1667 121.833,96.1667 120.5,95.5 Z"/></g>
<g><path style="opacity:0.992" fill="#0e1021" d="M 338.5,96.5 C 350.244,96.0517 362.244,95.7184 374.5,95.5C 406.268,94.6966 437.935,96.0299 469.5,99.5C 469.833,99.5 470.167,99.5 470.5,99.5C 493.907,102.845 517.24,107.178 540.5,112.5C 540.833,112.5 541.167,112.5 541.5,112.5C 550.222,115.553 559.222,118.053 568.5,120C 569.056,120.383 569.389,120.883 569.5,121.5C 553.826,117.777 538.159,113.943 522.5,110C 482.341,101.551 441.674,97.3839 400.5,97.5C 400.167,97.5 399.833,97.5 399.5,97.5C 360.487,97.0016 321.82,100.335 283.5,107.5C 284.669,105.994 286.669,104.994 289.5,104.5C 293.425,104.57 297.091,103.903 300.5,102.5C 302.5,102.5 304.5,102.5 306.5,102.5C 311.041,102.006 315.374,101.006 319.5,99.5C 320.5,99.5 321.5,99.5 322.5,99.5C 331.192,98.9971 339.858,98.1637 348.5,97C 345.183,96.5017 341.85,96.335 338.5,96.5 Z"/></g>
<g><path style="opacity:0.173" fill="#153d74" d="M 338.5,96.5 C 341.85,96.335 345.183,96.5017 348.5,97C 339.858,98.1637 331.192,98.9971 322.5,99.5C 325.941,98.0063 329.608,96.673 333.5,95.5C 335.071,96.3094 336.738,96.6427 338.5,96.5 Z"/></g>
<g><path style="opacity:1" fill="#fcfdfd" d="M 399.5,97.5 C 399.5,208.167 399.5,318.833 399.5,429.5C 493.167,429.5 586.833,429.5 680.5,429.5C 680.5,429.833 680.5,430.167 680.5,430.5C 586.833,430.5 493.167,430.5 399.5,430.5C 399.5,541.167 399.5,651.833 399.5,762.5C 398.833,762.5 398.5,762.167 398.5,761.5C 398.5,651.167 398.5,540.833 398.5,430.5C 304.167,430.5 209.833,430.5 115.5,430.5C 106.662,390.788 101.496,350.455 100,309.5C 99.5,277.835 99.3334,246.168 99.5,214.5C 99.5,211.833 99.5,209.167 99.5,206.5C 100.36,194.715 101.693,182.882 103.5,171C 143.706,150.326 185.373,133.492 228.5,120.5C 246.885,115.884 265.219,111.551 283.5,107.5C 321.82,100.335 360.487,97.0016 399.5,97.5 Z"/></g>
<g><path style="opacity:0.031" fill="#01134d" d="M 209.5,98.5 C 209.649,99.552 209.483,100.552 209,101.5C 208.26,100.251 208.427,99.2506 209.5,98.5 Z"/></g>
<g><path style="opacity:0.341" fill="#10396d" d="M 319.5,99.5 C 315.374,101.006 311.041,102.006 306.5,102.5C 306.881,101.069 307.881,100.236 309.5,100C 312.817,99.5017 316.15,99.335 319.5,99.5 Z"/></g>
<g><path style="opacity:0.031" fill="#01144a" d="M 192.5,91.5 C 194.017,91.5106 195.184,92.1772 196,93.5C 197.741,99.5735 195.575,103.24 189.5,104.5C 191.437,103.069 193.27,101.402 195,99.5C 195.982,96.2253 195.149,93.5586 192.5,91.5 Z"/></g>
<g><path style="opacity:1" fill="#004492" d="M 400.5,97.5 C 441.674,97.3839 482.341,101.551 522.5,110C 538.159,113.943 553.826,117.777 569.5,121.5C 590.245,128.901 611.079,136.234 632,143.5C 650.496,151.911 668.996,160.244 687.5,168.5C 687.5,169.5 687.5,170.5 687.5,171.5C 689.167,171.5 690.833,171.5 692.5,171.5C 691.945,175.012 692.612,178.012 694.5,180.5C 694.5,187.167 694.5,193.833 694.5,200.5C 694.588,210.84 694.921,221.173 695.5,231.5C 695.609,238.289 694.942,244.956 693.5,251.5C 695.292,266.442 695.958,281.442 695.5,296.5C 694.039,340.825 689.372,384.825 681.5,428.5C 587.833,428.5 494.167,428.5 400.5,428.5C 400.5,318.167 400.5,207.833 400.5,97.5 Z"/></g>
<g><path style="opacity:0.239" fill="#0d2f64" d="M 300.5,102.5 C 297.091,103.903 293.425,104.57 289.5,104.5C 292.684,102.586 296.351,101.92 300.5,102.5 Z"/></g>
<g><path style="opacity:0.443" fill="#153f7b" d="M 693.5,89.5 C 693.947,81.7096 690.281,78.5429 682.5,80C 679.358,85.4632 675.858,90.6299 672,95.5C 665.131,103.317 658.298,110.984 651.5,118.5C 651.918,115.235 653.085,112.235 655,109.5C 664.967,100.262 673.133,90.0952 679.5,79C 684.974,77.0618 689.974,77.8951 694.5,81.5C 694.833,82.6667 695.167,83.8333 695.5,85C 695.693,87.0081 695.026,88.5081 693.5,89.5 Z"/></g>
<g><path style="opacity:0.031" fill="#01134d" d="M 272.5,106.5 C 273.833,107.167 273.833,107.167 272.5,106.5 Z"/></g>
<g><path style="opacity:0.341" fill="#10396f" d="M 470.5,99.5 C 483.949,99.9603 497.282,101.46 510.5,104C 517.924,106.437 525.591,108.104 533.5,109C 536.192,109.743 538.525,110.91 540.5,112.5C 517.24,107.178 493.907,102.845 470.5,99.5 Z"/></g>
<g><path style="opacity:0.031" fill="#01134d" d="M 100.5,109.5 C 101.833,110.167 101.833,110.167 100.5,109.5 Z"/></g>
<g><path style="opacity:0.608" fill="#101a35" d="M 289.5,104.5 C 286.669,104.994 284.669,105.994 283.5,107.5C 265.219,111.551 246.885,115.884 228.5,120.5C 228.167,120.5 227.833,120.5 227.5,120.5C 229.103,119.404 230.603,118.07 232,116.5C 232.333,116.833 232.667,117.167 233,117.5C 235.405,116.726 237.905,116.226 240.5,116C 251.403,111.42 262.736,108.753 274.5,108C 279.253,105.087 284.253,103.921 289.5,104.5 Z"/></g>
<g><path style="opacity:0.149" fill="#02113f" d="M 622.5,110.5 C 630.167,111.833 637.833,111.833 645.5,110.5C 645.389,111.117 645.056,111.617 644.5,112C 637.5,112.667 630.5,112.667 623.5,112C 622.944,111.617 622.611,111.117 622.5,110.5 Z"/></g>
<g><path style="opacity:0.443" fill="#10386d" d="M 570.5,119.5 C 570.672,120.492 570.338,121.158 569.5,121.5C 569.389,120.883 569.056,120.383 568.5,120C 559.222,118.053 550.222,115.553 541.5,112.5C 542.625,111.986 543.791,111.653 545,111.5C 553.518,114.434 562.018,117.1 570.5,119.5 Z"/></g>
<g><path style="opacity:0.031" fill="#01134d" d="M 159.5,119.5 C 159.897,118.475 160.563,118.308 161.5,119C 160.906,119.464 160.239,119.631 159.5,119.5 Z"/></g>
<g><path style="opacity:0.239" fill="#08275e" d="M 693.5,107.5 C 689.16,113.505 684.826,119.505 680.5,125.5C 679.607,128.084 679.274,130.751 679.5,133.5C 678.362,130.696 678.195,127.696 679,124.5C 682.254,120.256 685.421,115.923 688.5,111.5C 690.185,110.047 691.851,108.714 693.5,107.5 Z"/></g>
<g><path style="opacity:0.341" fill="#103a70" d="M 221.5,120.5 C 217.172,122.567 212.672,124.567 208,126.5C 207.329,125.748 206.496,125.414 205.5,125.5C 207.242,124.043 209.242,122.876 211.5,122C 214.88,121.661 218.213,121.161 221.5,120.5 Z"/></g>
<g><path style="opacity:0.443" fill="#0c3368" d="M 205.5,125.5 C 203.574,127.293 201.241,128.293 198.5,128.5C 199.856,126.73 201.689,125.397 204,124.5C 204.383,125.056 204.883,125.389 205.5,125.5 Z"/></g>
<g><path style="opacity:0.443" fill="#0c346c" d="M 571.5,120.5 C 577.652,121.114 583.652,122.448 589.5,124.5C 602.754,129.455 615.754,133.955 628.5,138C 630.319,138.74 631.652,139.907 632.5,141.5C 612.168,134.279 591.834,127.279 571.5,120.5 Z"/></g>
<g><path style="opacity:0.086" fill="#09285e" d="M 196.5,128.5 C 192.597,130.939 188.263,132.605 183.5,133.5C 184.348,131.907 185.681,130.74 187.5,130C 190.513,129.498 193.513,128.998 196.5,128.5 Z"/></g>
<g><path style="opacity:0.031" fill="#01134d" d="M 696.5,131.5 C 697.833,132.167 697.833,132.167 696.5,131.5 Z"/></g>
<g><path style="opacity:0.031" fill="#01134d" d="M 95.5,133.5 C 96.5735,134.251 96.7401,135.251 96,136.5C 95.5172,135.552 95.3505,134.552 95.5,133.5 Z"/></g>
<g><path style="opacity:0.753" fill="#060a1e" d="M 570.5,119.5 C 571.167,119.5 571.5,119.833 571.5,120.5C 591.834,127.279 612.168,134.279 632.5,141.5C 638.628,144.546 644.961,147.213 651.5,149.5C 654.035,151.017 656.702,152.35 659.5,153.5C 659.833,153.5 660.167,153.5 660.5,153.5C 671.235,158.928 682.235,164.094 693.5,169C 695.211,170.133 695.711,171.633 695,173.5C 693.127,171.023 690.627,169.357 687.5,168.5C 668.996,160.244 650.496,151.911 632,143.5C 611.079,136.234 590.245,128.901 569.5,121.5C 570.338,121.158 570.672,120.492 570.5,119.5 Z"/></g>
<g><path style="opacity:1" fill="#11346c" d="M 180.5,134.5 C 173.018,138.07 165.352,141.403 157.5,144.5C 163.876,138.476 171.542,135.143 180.5,134.5 Z"/></g>
<g><path style="opacity:0.173" fill="#0c336c" d="M 651.5,149.5 C 644.961,147.213 638.628,144.546 632.5,141.5C 633.117,141.389 633.617,141.056 634,140.5C 637.724,142.259 641.558,143.759 645.5,145C 647.859,146.242 649.859,147.742 651.5,149.5 Z"/></g>
<g><path style="opacity:0.239" fill="#0d346c" d="M 651.5,149.5 C 654.206,149.575 656.873,149.908 659.5,150.5C 659.5,151.5 659.5,152.5 659.5,153.5C 656.702,152.35 654.035,151.017 651.5,149.5 Z"/></g>
<g><path style="opacity:0.173" fill="#0c3067" d="M 136.5,152.5 C 131.919,155.622 126.919,157.956 121.5,159.5C 122.29,158.206 123.29,157.039 124.5,156C 128.228,153.973 132.228,152.807 136.5,152.5 Z"/></g>
<g><path style="opacity:0.173" fill="#0f3267" d="M 121.5,159.5 C 116.285,162.939 110.618,165.605 104.5,167.5C 109.126,164.416 113.96,161.416 119,158.5C 119.671,159.252 120.504,159.586 121.5,159.5 Z"/></g>
<g><path style="opacity:1" fill="#11131e" d="M 221.5,120.5 C 223.5,120.5 225.5,120.5 227.5,120.5C 227.833,120.5 228.167,120.5 228.5,120.5C 185.373,133.492 143.706,150.326 103.5,171C 101.693,182.882 100.36,194.715 99.5,206.5C 99.5,201.5 99.5,196.5 99.5,191.5C 99.5,187.5 99.5,183.5 99.5,179.5C 100.319,176.695 100.819,173.695 101,170.5C 102.518,169.837 103.685,168.837 104.5,167.5C 110.618,165.605 116.285,162.939 121.5,159.5C 126.919,157.956 131.919,155.622 136.5,152.5C 139.208,151.534 141.708,150.201 144,148.5C 146.562,148.738 148.896,147.738 151,145.5C 151.333,145.833 151.667,146.167 152,146.5C 153.401,144.808 155.234,144.141 157.5,144.5C 165.352,141.403 173.018,138.07 180.5,134.5C 180.804,132.204 181.804,131.871 183.5,133.5C 188.263,132.605 192.597,130.939 196.5,128.5C 197.167,128.5 197.833,128.5 198.5,128.5C 201.241,128.293 203.574,127.293 205.5,125.5C 206.496,125.414 207.329,125.748 208,126.5C 212.672,124.567 217.172,122.567 221.5,120.5 Z"/></g>
<g><path style="opacity:1" fill="#163873" d="M 280.5,188.5 C 280.919,183.604 281.586,178.771 282.5,174C 282.445,171.443 282.112,168.943 281.5,166.5C 276.466,165.344 273.299,167.344 272,172.5C 271.275,171.941 270.442,171.608 269.5,171.5C 266.817,172.51 264.151,173.51 261.5,174.5C 266.658,170.863 271.991,167.363 277.5,164C 278.759,163.018 280.092,162.685 281.5,163C 285.638,171.751 285.304,180.251 280.5,188.5 Z"/></g>
<g><path style="opacity:0.173" fill="#0f356d" d="M 660.5,153.5 C 663.807,153.462 666.974,154.128 670,155.5C 678.085,159.559 686.252,163.392 694.5,167C 696.691,169.591 697.358,172.425 696.5,175.5C 695.883,175.389 695.383,175.056 695,174.5C 694.505,176.473 694.338,178.473 694.5,180.5C 692.612,178.012 691.945,175.012 692.5,171.5C 690.833,171.5 689.167,171.5 687.5,171.5C 687.5,170.5 687.5,169.5 687.5,168.5C 690.627,169.357 693.127,171.023 695,173.5C 695.711,171.633 695.211,170.133 693.5,169C 682.235,164.094 671.235,158.928 660.5,153.5 Z"/></g>
<g><path style="opacity:0.173" fill="#0d3874" d="M 104.5,167.5 C 103.685,168.837 102.518,169.837 101,170.5C 100.819,173.695 100.319,176.695 99.5,179.5C 99.1758,175.445 99.5091,171.445 100.5,167.5C 101.865,166.193 103.198,166.193 104.5,167.5 Z"/></g>
<g><path style="opacity:0.475" fill="#081533" d="M 696.5,175.5 C 697.131,185.227 697.131,194.394 696.5,203C 697,203.5 697.5,204 698,204.5C 698.498,207.482 698.665,210.482 698.5,213.5C 698.167,213.5 697.833,213.5 697.5,213.5C 697.66,211.801 697.494,210.134 697,208.5C 696.814,211.036 696.314,213.369 695.5,215.5C 695.821,210.305 695.487,205.305 694.5,200.5C 694.5,193.833 694.5,187.167 694.5,180.5C 694.338,178.473 694.505,176.473 695,174.5C 695.383,175.056 695.883,175.389 696.5,175.5 Z"/></g>
<g><path style="opacity:1" fill="#024390" d="M 280.5,188.5 C 277.604,196.557 271.938,201.723 263.5,204C 246.885,209.456 229.885,213.123 212.5,215C 211.692,215.308 211.025,215.808 210.5,216.5C 197.765,263.347 189.598,311.014 186,359.5C 175.483,365.06 164.317,366.894 152.5,365C 151.069,364.535 149.903,363.701 149,362.5C 147.424,356.612 147.091,350.612 148,344.5C 156.962,307.733 164.962,270.733 172,233.5C 173.33,227.201 173.996,220.868 174,214.5C 158.969,214.434 145.636,219.101 134,228.5C 125.76,210.801 130.926,198.634 149.5,192C 154.786,191.036 160.12,190.536 165.5,190.5C 183.602,192.218 201.602,191.551 219.5,188.5C 219.917,189.124 220.584,189.457 221.5,189.5C 229.485,187.471 237.485,185.637 245.5,184C 250.719,180.56 256.052,177.394 261.5,174.5C 264.151,173.51 266.817,172.51 269.5,171.5C 270.442,171.608 271.275,171.941 272,172.5C 273.299,167.344 276.466,165.344 281.5,166.5C 282.112,168.943 282.445,171.443 282.5,174C 281.586,178.771 280.919,183.604 280.5,188.5 Z"/></g>
<g><path style="opacity:1" fill="#10316d" d="M 261.5,174.5 C 256.052,177.394 250.719,180.56 245.5,184C 237.485,185.637 229.485,187.471 221.5,189.5C 220.584,189.457 219.917,189.124 219.5,188.5C 234.082,185.54 248.082,180.874 261.5,174.5 Z"/></g>
<g><path style="opacity:0.608" fill="#051234" d="M 99.5,191.5 C 99.5,196.5 99.5,201.5 99.5,206.5C 99.5,209.167 99.5,211.833 99.5,214.5C 98.8333,214.833 98.1667,215.167 97.5,215.5C 97.1667,215.5 96.8333,215.5 96.5,215.5C 97.2681,207.881 97.7681,200.214 98,192.5C 98.3826,191.944 98.8826,191.611 99.5,191.5 Z"/></g>
<g><path style="opacity:0.443" fill="#0d346c" d="M 698.5,213.5 C 700.527,213.338 702.527,213.505 704.5,214C 708.941,215.675 713.108,217.841 717,220.5C 718.958,220.209 720.458,221.209 721.5,223.5C 715.955,221.097 710.289,219.097 704.5,217.5C 702.636,215.986 700.636,214.653 698.5,213.5 Z"/></g>
<g><path style="opacity:0.086" fill="#0d1a45" d="M 96.5,215.5 C 96.6068,217.379 96.1068,217.712 95,216.5C 94.0053,217.066 93.172,217.733 92.5,218.5C 86.3311,219.882 80.6645,222.216 75.5,225.5C 72.0626,226.134 68.8959,227.467 66,229.5C 64.6885,237.105 64.1885,244.772 64.5,252.5C 63.302,244.078 63.302,235.745 64.5,227.5C 70.5369,225.674 76.2035,223.174 81.5,220C 86.3389,217.964 91.3389,216.464 96.5,215.5 Z"/></g>
<g><path style="opacity:1" fill="#605f61" d="M 697.5,213.5 C 697.833,213.5 698.167,213.5 698.5,213.5C 700.636,214.653 702.636,215.986 704.5,217.5C 704.137,219.911 705.137,221.411 707.5,222C 703.5,223 703.5,224 707.5,225C 707,225.5 706.5,226 706,226.5C 705.333,318.5 705.333,410.5 706,502.5C 707.02,503.891 707.853,505.391 708.5,507C 706.112,512.97 704.446,519.136 703.5,525.5C 702.069,526.78 701.402,528.447 701.5,530.5C 700.717,532.076 699.55,533.409 698,534.5C 697.637,537.544 697.137,540.544 696.5,543.5C 696.5,543.833 696.5,544.167 696.5,544.5C 695.263,545.965 694.263,547.632 693.5,549.5C 692.56,554.402 690.726,559.069 688,563.5C 687.292,564.381 686.458,565.047 685.5,565.5C 685.48,563.857 686.147,562.524 687.5,561.5C 686.675,560.614 685.675,560.281 684.5,560.5C 685.016,555.211 685.183,549.877 685,544.5C 685.333,546.167 685.667,547.833 686,549.5C 686.333,549.167 686.667,548.833 687,548.5C 687.82,505.648 687.653,462.815 686.5,420C 686.865,417.739 687.531,415.573 688.5,413.5C 688.291,412.914 687.957,412.414 687.5,412C 691.835,408.852 691.502,408.019 686.5,409.5C 696.516,344.549 700.182,279.216 697.5,213.5 Z"/></g>
<g><path style="opacity:1" fill="#f5f5f5" d="M 92.5,218.5 C 96.8762,217.888 97.5429,219.054 94.5,222C 95.1067,248.906 95.7734,276.239 96.5,304C 96.4411,305.436 96.1078,306.769 95.5,308C 96.9752,320.653 98.3085,333.32 99.5,346C 99.7242,351.777 99.3909,357.777 98.5,364C 101.928,366.145 102.428,368.979 100,372.5C 99.4444,370.405 98.9444,370.238 98.5,372C 102.586,378.388 104.252,385.222 103.5,392.5C 103.919,393.672 104.585,394.672 105.5,395.5C 104.871,398.205 104.537,400.872 104.5,403.5C 104.846,404.696 105.346,404.696 106,403.5C 106.311,405.556 106.811,407.556 107.5,409.5C 103.625,410.486 103.625,411.653 107.5,413C 105.991,414.674 105.324,416.34 105.5,418C 106.91,418.368 107.91,419.201 108.5,420.5C 107.846,422.115 107.346,423.782 107,425.5C 106.667,425.167 106.333,424.833 106,424.5C 105.664,428.689 105.164,432.856 104.5,437C 105.689,468.856 105.689,502.023 104.5,536.5C 103.692,538.423 103.192,540.423 103,542.5C 102.421,538.053 102.921,533.72 104.5,529.5C 103.675,528.614 102.675,528.281 101.5,528.5C 101.657,529.873 101.49,531.207 101,532.5C 100.667,532.167 100.333,531.833 100,531.5C 99.6667,532.5 99.3333,533.5 99,534.5C 98.8784,532.563 98.045,531.23 96.5,530.5C 95.8333,529.833 95.1667,529.167 94.5,528.5C 93.596,527.791 93.2627,526.791 93.5,525.5C 93.5979,523.447 92.9313,521.78 91.5,520.5C 91.5979,518.447 90.9313,516.78 89.5,515.5C 88.5655,514.432 88.2322,513.099 88.5,511.5C 88.5905,508.848 87.9238,506.515 86.5,504.5C 86.3713,502.784 86.038,501.117 85.5,499.5C 85.5,499.167 85.5,498.833 85.5,498.5C 84.9759,496.694 84.3092,495.028 83.5,493.5C 83.2785,490.933 82.6118,488.599 81.5,486.5C 80.5386,484.735 80.2053,482.735 80.5,480.5C 79.8902,479.609 79.5569,478.609 79.5,477.5C 80.3764,477.369 81.0431,477.702 81.5,478.5C 84.3317,483.495 86.165,488.829 87,494.5C 87.3333,493.167 87.6667,491.833 88,490.5C 88.2022,492.256 88.7022,493.922 89.5,495.5C 90.1924,492.837 91.1924,490.337 92.5,488C 91.5765,486.189 90.7431,486.355 90,488.5C 90.5244,484.794 90.3577,481.127 89.5,477.5C 88.1779,477.33 87.0113,477.663 86,478.5C 84.3959,478.097 83.2292,476.764 82.5,474.5C 83.8333,474.167 85.1667,473.833 86.5,473.5C 85.5,472.5 84.5,471.5 83.5,470.5C 82.3334,391.169 82.1667,311.835 83,232.5C 85.7482,232.26 88.9148,231.926 92.5,231.5C 89.5535,230.679 86.5535,230.179 83.5,230C 83.1667,229.667 82.8333,229.333 82.5,229C 83.8989,228.405 85.2322,228.572 86.5,229.5C 87.7445,228.045 87.5778,226.711 86,225.5C 82.4319,226.733 78.9319,226.733 75.5,225.5C 80.6645,222.216 86.3311,219.882 92.5,218.5 Z"/></g>
<g><path style="opacity:0.993" fill="#f7f7f6" d="M 75.5,225.5 C 78.9319,226.733 82.4319,226.733 86,225.5C 87.5778,226.711 87.7445,228.045 86.5,229.5C 85.2322,228.572 83.8989,228.405 82.5,229C 82.8333,229.333 83.1667,229.667 83.5,230C 86.5535,230.179 89.5535,230.679 92.5,231.5C 88.9148,231.926 85.7482,232.26 83,232.5C 82.1667,311.835 82.3334,391.169 83.5,470.5C 84.5,471.5 85.5,472.5 86.5,473.5C 85.1667,473.833 83.8333,474.167 82.5,474.5C 83.2292,476.764 84.3959,478.097 86,478.5C 87.0113,477.663 88.1779,477.33 89.5,477.5C 90.3577,481.127 90.5244,484.794 90,488.5C 90.7431,486.355 91.5765,486.189 92.5,488C 91.1924,490.337 90.1924,492.837 89.5,495.5C 88.7022,493.922 88.2022,492.256 88,490.5C 87.6667,491.833 87.3333,493.167 87,494.5C 86.165,488.829 84.3317,483.495 81.5,478.5C 81.0431,477.702 80.3764,477.369 79.5,477.5C 78.8684,473.298 77.8684,469.298 76.5,465.5C 75.5318,463.393 75.1984,461.059 75.5,458.5C 75.0104,455.345 74.3438,452.345 73.5,449.5C 72.5318,447.393 72.1984,445.059 72.5,442.5C 71.1486,435.048 69.8153,427.714 68.5,420.5C 67.5184,417.038 67.185,413.371 67.5,409.5C 65.4743,398.267 64.4743,386.934 64.5,375.5C 64.5,375.167 64.5,374.833 64.5,374.5C 63.8695,368.066 63.2029,361.733 62.5,355.5C 62.3333,321.832 62.5,288.165 63,254.5C 63.7172,253.956 64.2172,253.289 64.5,252.5C 64.1885,244.772 64.6885,237.105 66,229.5C 68.8959,227.467 72.0626,226.134 75.5,225.5 Z"/></g>
<g><path style="opacity:1" fill="#59595c" d="M 704.5,217.5 C 710.289,219.097 715.955,221.097 721.5,223.5C 724.739,224.593 727.739,226.26 730.5,228.5C 731.098,234.529 731.931,240.529 733,246.5C 735.127,289.525 734.961,332.525 732.5,375.5C 731.642,379.673 730.976,384.007 730.5,388.5C 729.135,399.661 728.135,410.994 727.5,422.5C 727.859,424.766 727.192,426.599 725.5,428C 725.704,430.621 725.704,433.455 725.5,436.5C 723.783,441.9 722.783,447.566 722.5,453.5C 719.63,461.145 717.964,469.145 717.5,477.5C 716.883,477.611 716.383,477.944 716,478.5C 715.059,485.682 713.559,492.682 711.5,499.5C 709.87,505.405 708.204,511.405 706.5,517.5C 706.859,519.766 706.192,521.599 704.5,523C 705.566,524.159 705.233,524.992 703.5,525.5C 704.446,519.136 706.112,512.97 708.5,507C 707.853,505.391 707.02,503.891 706,502.5C 705.333,410.5 705.333,318.5 706,226.5C 706.5,226 707,225.5 707.5,225C 703.5,224 703.5,223 707.5,222C 705.137,221.411 704.137,219.911 704.5,217.5 Z"/></g>
<g><path style="opacity:0.031" fill="#081f53" d="M 721.5,223.5 C 725.167,223.497 728.501,224.497 731.5,226.5C 732.042,232.311 732.876,237.978 734,243.5C 735.988,287.167 735.988,330.834 734,374.5C 733.617,375.056 733.117,375.389 732.5,375.5C 734.961,332.525 735.127,289.525 733,246.5C 731.931,240.529 731.098,234.529 730.5,228.5C 727.739,226.26 724.739,224.593 721.5,223.5 Z"/></g>
<g><path style="opacity:1" fill="#164481" d="M 694.5,200.5 C 695.487,205.305 695.821,210.305 695.5,215.5C 696.811,242.64 696.811,269.64 695.5,296.5C 695.958,281.442 695.292,266.442 693.5,251.5C 694.942,244.956 695.609,238.289 695.5,231.5C 694.921,221.173 694.588,210.84 694.5,200.5 Z"/></g>
<g><path style="opacity:1" fill="#034390" d="M 273.5,322.5 C 282.222,305.057 291.222,287.057 300.5,268.5C 323.478,226.319 352.978,188.985 389,156.5C 390.588,160.309 390.922,164.309 390,168.5C 386.297,181.238 380.964,193.238 374,204.5C 359.221,223.947 345.221,243.947 332,264.5C 312.667,298.148 297.001,333.482 285,370.5C 284.333,376.167 284.333,381.833 285,387.5C 285.5,388.5 286,389.5 286.5,390.5C 275.632,395.108 264.298,397.275 252.5,397C 250.622,395.457 249.122,393.624 248,391.5C 246.508,385.199 245.175,378.865 244,372.5C 242.112,349.536 240.779,326.536 240,303.5C 240.251,288.402 236.584,274.402 229,261.5C 226.131,258.296 222.965,255.463 219.5,253C 227.575,245.518 236.908,243.518 247.5,247C 255.359,249.526 260.526,254.693 263,262.5C 265.34,274.391 266.84,286.391 267.5,298.5C 266.158,310.472 265.658,322.472 266,334.5C 266.667,335.833 267.333,335.833 268,334.5C 269.609,330.29 271.442,326.29 273.5,322.5 Z"/></g>
<g><path style="opacity:1" fill="#10306c" d="M 300.5,268.5 C 291.222,287.057 282.222,305.057 273.5,322.5C 280.938,303.625 289.938,285.625 300.5,268.5 Z"/></g>
<g><path style="opacity:1" fill="#222224" d="M 99.5,214.5 C 99.3334,246.168 99.5,277.835 100,309.5C 101.496,350.455 106.662,390.788 115.5,430.5C 114.89,431.391 114.557,432.391 114.5,433.5C 111.225,421.805 108.725,409.805 107,397.5C 98.1407,337.145 94.9741,276.478 97.5,215.5C 98.1667,215.167 98.8333,214.833 99.5,214.5 Z"/></g>
<g><path style="opacity:1" fill="#050510" d="M 697.5,213.5 C 700.182,279.216 696.516,344.549 686.5,409.5C 684.911,416.444 683.578,423.444 682.5,430.5C 681.833,430.5 681.167,430.5 680.5,430.5C 680.5,430.167 680.5,429.833 680.5,429.5C 681.167,429.5 681.5,429.167 681.5,428.5C 689.372,384.825 694.039,340.825 695.5,296.5C 696.811,269.64 696.811,242.64 695.5,215.5C 696.314,213.369 696.814,211.036 697,208.5C 697.494,210.134 697.66,211.801 697.5,213.5 Z"/></g>
<g><path style="opacity:0.286" fill="#102044" d="M 62.5,355.5 C 63.2029,361.733 63.8695,368.066 64.5,374.5C 62.5437,368.588 61.8771,362.255 62.5,355.5 Z"/></g>
<g><path style="opacity:0.149" fill="#04123d" d="M 732.5,375.5 C 733.097,380.294 732.43,384.627 730.5,388.5C 730.976,384.007 731.642,379.673 732.5,375.5 Z"/></g>
<g><path style="opacity:0.086" fill="#062054" d="M 730.5,388.5 C 730.295,396.336 729.961,404.169 729.5,412C 729.488,415.902 728.821,419.402 727.5,422.5C 728.135,410.994 729.135,399.661 730.5,388.5 Z"/></g>
<g><path style="opacity:0.086" fill="#071642" d="M 64.5,375.5 C 64.4743,386.934 65.4743,398.267 67.5,409.5C 65.7609,406.252 64.5942,402.586 64,398.5C 63.1777,390.655 63.3443,382.989 64.5,375.5 Z"/></g>
<g><path style="opacity:0.031" fill="#0b1949" d="M 68.5,420.5 C 69.8153,427.714 71.1486,435.048 72.5,442.5C 70.974,440.55 69.974,438.217 69.5,435.5C 68.5059,430.544 68.1725,425.544 68.5,420.5 Z"/></g>
<g><path style="opacity:1" fill="#656567" d="M 685.5,565.5 C 683.669,572.826 681.003,579.826 677.5,586.5C 674.544,588.788 672.877,591.788 672.5,595.5C 670.436,598.243 668.769,601.243 667.5,604.5C 664.586,608.658 661.919,612.991 659.5,617.5C 652.918,627.264 646.085,636.931 639,646.5C 635.964,649.704 632.797,652.704 629.5,655.5C 640.087,641.854 650.087,627.688 659.5,613C 658.833,612.333 658.167,612.333 657.5,613C 656.789,614.255 655.956,615.421 655,616.5C 653.385,615.344 653.385,614.011 655,612.5C 655.167,601.167 655.333,589.833 655.5,578.5C 655.364,562.28 655.031,546.446 654.5,531C 656.525,529.806 656.859,528.306 655.5,526.5C 657.385,525.803 657.718,524.803 656.5,523.5C 659.965,521.984 660.298,519.984 657.5,517.5C 668.06,489.152 676.393,460.152 682.5,430.5C 683.578,423.444 684.911,416.444 686.5,409.5C 691.502,408.019 691.835,408.852 687.5,412C 687.957,412.414 688.291,412.914 688.5,413.5C 687.531,415.573 686.865,417.739 686.5,420C 687.653,462.815 687.82,505.648 687,548.5C 686.667,548.833 686.333,549.167 686,549.5C 685.667,547.833 685.333,546.167 685,544.5C 685.183,549.877 685.016,555.211 684.5,560.5C 685.675,560.281 686.675,560.614 687.5,561.5C 686.147,562.524 685.48,563.857 685.5,565.5 Z"/></g>
<g><path style="opacity:1" fill="#001b54" d="M 399.5,97.5 C 399.833,97.5 400.167,97.5 400.5,97.5C 400.5,207.833 400.5,318.167 400.5,428.5C 494.167,428.5 587.833,428.5 681.5,428.5C 681.5,429.167 681.167,429.5 680.5,429.5C 586.833,429.5 493.167,429.5 399.5,429.5C 399.5,318.833 399.5,208.167 399.5,97.5 Z"/></g>
<g><path style="opacity:1" fill="#fdfdfd" d="M 680.5,430.5 C 648.746,593.895 555.079,704.562 399.5,762.5C 399.5,651.833 399.5,541.167 399.5,430.5C 493.167,430.5 586.833,430.5 680.5,430.5 Z"/></g>
<g><path style="opacity:1" fill="#004492" d="M 117.5,432.5 C 208.999,433.333 300.666,433.833 392.5,434C 395.351,435.881 395.018,436.715 391.5,436.5C 300.515,435.341 209.515,435.174 118.5,436C 124.083,436.191 129.583,436.691 135,437.5C 218.544,437.044 302.044,436.711 385.5,436.5C 387.075,437.456 388.742,438.123 390.5,438.5C 390.5,542.833 390.5,647.167 390.5,751.5C 389.127,751.343 387.793,751.51 386.5,752C 388.437,752.122 389.77,752.955 390.5,754.5C 386.901,754.262 386.567,755.262 389.5,757.5C 390.833,758.167 392.167,758.833 393.5,759.5C 394.736,758.754 396.07,758.421 397.5,758.5C 397.5,759.5 397.5,760.5 397.5,761.5C 315.927,733.851 248.594,686.517 195.5,619.5C 183.764,601.762 172.43,583.762 161.5,565.5C 152.44,545.98 143.773,526.313 135.5,506.5C 135.333,502.327 134,498.66 131.5,495.5C 129.453,486.554 126.786,477.888 123.5,469.5C 122.821,462.815 121.155,456.482 118.5,450.5C 118.221,445.773 117.554,441.107 116.5,436.5C 116.232,434.901 116.566,433.568 117.5,432.5 Z"/></g>
<g><path style="opacity:1" fill="#034186" d="M 390.5,438.5 C 391.833,490.829 392.5,543.496 392.5,596.5C 392.5,649.504 391.833,702.171 390.5,754.5C 389.77,752.955 388.437,752.122 386.5,752C 387.793,751.51 389.127,751.343 390.5,751.5C 390.5,647.167 390.5,542.833 390.5,438.5 Z"/></g>
<g><path style="opacity:1" fill="#014294" d="M 397.5,758.5 C 396.07,758.421 394.736,758.754 393.5,759.5C 392.167,758.833 390.833,758.167 389.5,757.5C 386.567,755.262 386.901,754.262 390.5,754.5C 391.833,702.171 392.5,649.504 392.5,596.5C 392.5,543.496 391.833,490.829 390.5,438.5C 388.742,438.123 387.075,437.456 385.5,436.5C 302.044,436.711 218.544,437.044 135,437.5C 129.583,436.691 124.083,436.191 118.5,436C 209.515,435.174 300.515,435.341 391.5,436.5C 395.018,436.715 395.351,435.881 392.5,434C 300.666,433.833 208.999,433.333 117.5,432.5C 210.665,431.501 303.999,431.167 397.5,431.5C 397.5,540.5 397.5,649.5 397.5,758.5 Z"/></g>
<g><path style="opacity:1" fill="#00266a" d="M 115.5,430.5 C 209.833,430.5 304.167,430.5 398.5,430.5C 398.5,540.833 398.5,651.167 398.5,761.5C 398.167,761.5 397.833,761.5 397.5,761.5C 397.5,760.5 397.5,759.5 397.5,758.5C 397.5,649.5 397.5,540.5 397.5,431.5C 303.999,431.167 210.665,431.501 117.5,432.5C 116.566,433.568 116.232,434.901 116.5,436.5C 115.833,435.5 115.167,434.5 114.5,433.5C 114.557,432.391 114.89,431.391 115.5,430.5 Z"/></g>
<g><path style="opacity:1" fill="#14141b" d="M 114.5,433.5 C 115.167,434.5 115.833,435.5 116.5,436.5C 117.554,441.107 118.221,445.773 118.5,450.5C 116.092,445.194 114.758,439.528 114.5,433.5 Z"/></g>
<g><path style="opacity:1" fill="#034391" d="M 500.5,529.5 C 500.264,532.226 501.097,534.559 503,536.5C 503.333,536.167 503.667,535.833 504,535.5C 510.618,550.526 509.452,564.859 500.5,578.5C 499.302,578.94 498.135,579.273 497,579.5C 496.474,584.48 494.974,584.813 492.5,580.5C 491.522,580.977 490.689,581.643 490,582.5C 486.048,581.84 482.548,580.507 479.5,578.5C 486.242,564.891 484.409,552.558 474,541.5C 469.524,536.934 464.857,532.601 460,528.5C 445.562,541.707 439.228,558.041 441,577.5C 441.949,581.757 444.115,585.091 447.5,587.5C 447.062,587.435 446.728,587.601 446.5,588C 454.944,591.454 463.277,591.121 471.5,587C 472.381,586.292 473.047,585.458 473.5,584.5C 475.017,584.489 476.184,583.823 477,582.5C 477.956,583.579 478.789,584.745 479.5,586C 477.709,586.415 476.376,587.415 475.5,589C 477.061,589.941 478.395,591.108 479.5,592.5C 477.046,593.603 474.713,593.27 472.5,591.5C 470.675,592.651 468.675,593.318 466.5,593.5C 466.281,594.675 466.614,595.675 467.5,596.5C 471.554,593.938 475.554,594.104 479.5,597C 477.041,598.497 474.541,598.664 472,597.5C 469.597,599.983 467.264,599.983 465,597.5C 454.628,596.417 444.128,596.417 433.5,597.5C 433.5,596.5 433.5,595.5 433.5,594.5C 430.748,594.422 428.082,594.255 425.5,594C 428.333,595.833 428.167,597.333 425,598.5C 419.096,595.21 414.929,590.376 412.5,584C 412.759,582.739 413.426,581.739 414.5,581C 413.211,576.044 413.211,571.044 414.5,566C 413.833,565 413.167,564 412.5,563C 414.679,557.689 417.012,552.522 419.5,547.5C 427.401,536.767 437.067,527.934 448.5,521C 433.02,506.47 430.187,489.636 440,470.5C 455.504,448.734 476.338,441.234 502.5,448C 509.934,450.435 515.101,455.268 518,462.5C 520.744,479.604 515.578,493.77 502.5,505C 497.5,508.833 492.5,512.667 487.5,516.5C 492.161,520.494 496.494,524.827 500.5,529.5 Z"/></g>
<g><path style="opacity:0.086" fill="#051d4f" d="M 725.5,436.5 C 725.365,442.584 724.365,448.25 722.5,453.5C 722.783,447.566 723.783,441.9 725.5,436.5 Z"/></g>
<g><path style="opacity:1" fill="#eeeeee" d="M 96.5,215.5 C 96.8333,215.5 97.1667,215.5 97.5,215.5C 94.9741,276.478 98.1407,337.145 107,397.5C 108.725,409.805 111.225,421.805 114.5,433.5C 114.758,439.528 116.092,445.194 118.5,450.5C 119.093,457.209 120.759,463.542 123.5,469.5C 124.947,478.645 127.614,487.312 131.5,495.5C 132.025,499.533 133.358,503.2 135.5,506.5C 141.854,527.245 150.521,546.911 161.5,565.5C 161.604,567.703 162.27,569.703 163.5,571.5C 162.256,571.96 161.256,573.293 160.5,575.5C 159.833,574.167 159.167,572.833 158.5,571.5C 156.201,573.539 154.534,576.039 153.5,579C 153.759,580.261 154.426,581.261 155.5,582C 154.167,594.667 154.167,607.333 155.5,620C 154.643,620.689 153.977,621.522 153.5,622.5C 154.711,624.422 156.044,626.255 157.5,628C 156.529,629.204 155.529,629.704 154.5,629.5C 155.025,630.192 155.692,630.692 156.5,631C 156.499,632.399 156.165,633.899 155.5,635.5C 157.133,637.503 159.133,638.836 161.5,639.5C 161.292,641.92 161.626,644.253 162.5,646.5C 162.043,647.298 161.376,647.631 160.5,647.5C 159.598,645.659 158.264,644.326 156.5,643.5C 152.163,637.446 147.83,631.446 143.5,625.5C 142.32,622.46 140.653,619.794 138.5,617.5C 138.167,616.5 137.5,615.833 136.5,615.5C 135.546,612.249 133.88,609.582 131.5,607.5C 130.258,603.345 128.258,599.678 125.5,596.5C 122.67,590.17 119.337,584.17 115.5,578.5C 115.737,577.209 115.404,576.209 114.5,575.5C 111.409,568.32 108.076,561.32 104.5,554.5C 104.293,551.759 103.293,549.426 101.5,547.5C 101.5,547.167 101.5,546.833 101.5,546.5C 100.976,544.694 100.309,543.028 99.5,541.5C 98.9117,538.937 97.9117,536.604 96.5,534.5C 96.5,534.167 96.5,533.833 96.5,533.5C 96.5,532.5 96.5,531.5 96.5,530.5C 98.045,531.23 98.8784,532.563 99,534.5C 99.3333,533.5 99.6667,532.5 100,531.5C 100.333,531.833 100.667,532.167 101,532.5C 101.49,531.207 101.657,529.873 101.5,528.5C 102.675,528.281 103.675,528.614 104.5,529.5C 102.921,533.72 102.421,538.053 103,542.5C 103.192,540.423 103.692,538.423 104.5,536.5C 105.689,502.023 105.689,468.856 104.5,437C 105.164,432.856 105.664,428.689 106,424.5C 106.333,424.833 106.667,425.167 107,425.5C 107.346,423.782 107.846,422.115 108.5,420.5C 107.91,419.201 106.91,418.368 105.5,418C 105.324,416.34 105.991,414.674 107.5,413C 103.625,411.653 103.625,410.486 107.5,409.5C 106.811,407.556 106.311,405.556 106,403.5C 105.346,404.696 104.846,404.696 104.5,403.5C 104.537,400.872 104.871,398.205 105.5,395.5C 104.585,394.672 103.919,393.672 103.5,392.5C 104.252,385.222 102.586,378.388 98.5,372C 98.9444,370.238 99.4444,370.405 100,372.5C 102.428,368.979 101.928,366.145 98.5,364C 99.3909,357.777 99.7242,351.777 99.5,346C 98.3085,333.32 96.9752,320.653 95.5,308C 96.1078,306.769 96.4411,305.436 96.5,304C 95.7734,276.239 95.1067,248.906 94.5,222C 97.5429,219.054 96.8762,217.888 92.5,218.5C 93.172,217.733 94.0053,217.066 95,216.5C 96.1068,217.712 96.6068,217.379 96.5,215.5 Z"/></g>
<g><path style="opacity:0.031" fill="#02174d" d="M 73.5,449.5 C 74.3438,452.345 75.0104,455.345 75.5,458.5C 74.8826,458.389 74.3826,458.056 74,457.5C 73.5026,454.854 73.3359,452.187 73.5,449.5 Z"/></g>
<g><path style="opacity:1" fill="#16161c" d="M 118.5,450.5 C 121.155,456.482 122.821,462.815 123.5,469.5C 120.759,463.542 119.093,457.209 118.5,450.5 Z"/></g>
<g><path style="opacity:1" fill="#f9fbfb" d="M 481.5,501.5 C 479.203,503.294 477.037,505.294 475,507.5C 461.938,497.814 457.771,485.147 462.5,469.5C 469.427,459.788 477.594,458.454 487,465.5C 489.933,472.68 490.266,480.013 488,487.5C 486.079,492.339 483.912,497.006 481.5,501.5 Z"/></g>
<g><path style="opacity:0.239" fill="#0a2458" d="M 722.5,453.5 C 721.557,461.912 719.891,469.912 717.5,477.5C 717.964,469.145 719.63,461.145 722.5,453.5 Z"/></g>
<g><path style="opacity:0.286" fill="#151e48" d="M 76.5,465.5 C 77.8684,469.298 78.8684,473.298 79.5,477.5C 79.5569,478.609 79.8902,479.609 80.5,480.5C 78.8046,478.268 77.6379,475.601 77,472.5C 76.5034,470.19 76.3367,467.857 76.5,465.5 Z"/></g>
<g><path style="opacity:1" fill="#13131b" d="M 123.5,469.5 C 126.786,477.888 129.453,486.554 131.5,495.5C 127.614,487.312 124.947,478.645 123.5,469.5 Z"/></g>
<g><path style="opacity:1" fill="#15336e" d="M 481.5,501.5 C 483.912,497.006 486.079,492.339 488,487.5C 490.266,480.013 489.933,472.68 487,465.5C 477.594,458.454 469.427,459.788 462.5,469.5C 464.915,463.094 469.582,459.76 476.5,459.5C 482.612,459.472 487.112,462.139 490,467.5C 492.747,480.391 489.914,491.724 481.5,501.5 Z"/></g>
<g><path style="opacity:0.031" fill="#051546" d="M 81.5,486.5 C 82.6118,488.599 83.2785,490.933 83.5,493.5C 81.6565,491.721 80.9898,489.388 81.5,486.5 Z"/></g>
<g><path style="opacity:1" fill="#034390" d="M 617.5,506.5 C 617.75,517.651 617.417,528.985 616.5,540.5C 613.197,565.108 603.363,586.775 587,605.5C 578.347,615.495 568.514,623.995 557.5,631C 556.552,631.483 555.552,631.649 554.5,631.5C 548.207,633.096 541.874,634.596 535.5,636C 530.833,636.667 526.167,636.667 521.5,636C 519.413,635.208 517.579,634.041 516,632.5C 515.017,627.728 514.183,623.062 513.5,618.5C 513.281,617.325 513.614,616.325 514.5,615.5C 527.607,620.874 539.607,619.04 550.5,610C 565.579,596.02 576.245,579.187 582.5,559.5C 582.267,558.068 581.6,557.568 580.5,558C 569.418,570.04 555.751,575.04 539.5,573C 528.855,570.69 522.688,564.19 521,553.5C 517.302,522.061 529.136,498.561 556.5,483C 570.847,478.362 585.18,478.362 599.5,483C 609.086,488.086 615.086,495.919 617.5,506.5 Z"/></g>
<g><path style="opacity:0.031" fill="#041b51" d="M 717.5,477.5 C 716.804,481.452 716.304,485.452 716,489.5C 715.333,490.167 714.667,490.833 714,491.5C 714.053,494.675 713.22,497.342 711.5,499.5C 713.559,492.682 715.059,485.682 716,478.5C 716.383,477.944 716.883,477.611 717.5,477.5 Z"/></g>
<g><path style="opacity:0.149" fill="#031340" d="M 83.5,493.5 C 84.3092,495.028 84.9759,496.694 85.5,498.5C 83.744,497.448 83.0773,495.781 83.5,493.5 Z"/></g>
<g><path style="opacity:1" fill="#fafcfc" d="M 582.5,542.5 C 576.263,547.116 569.263,549.783 561.5,550.5C 554.07,550.02 549.903,546.02 549,538.5C 547.348,527.069 548.681,516.069 553,505.5C 560.146,495.507 569.313,493.007 580.5,498C 587.302,503.28 590.302,510.28 589.5,519C 589.04,524.887 588.207,530.72 587,536.5C 585.668,538.66 584.168,540.66 582.5,542.5 Z"/></g>
<g><path style="opacity:0.031" fill="#071648" d="M 85.5,499.5 C 86.038,501.117 86.3713,502.784 86.5,504.5C 84.4031,503.121 84.0698,501.455 85.5,499.5 Z"/></g>
<g><path style="opacity:1" fill="#070712" d="M 131.5,495.5 C 134,498.66 135.333,502.327 135.5,506.5C 133.358,503.2 132.025,499.533 131.5,495.5 Z"/></g>
<g><path style="opacity:0.086" fill="#0b1845" d="M 86.5,504.5 C 87.9238,506.515 88.5905,508.848 88.5,511.5C 86.6565,509.721 85.9898,507.388 86.5,504.5 Z"/></g>
<g><path style="opacity:0.086" fill="#061d50" d="M 711.5,499.5 C 711.82,502.898 711.487,506.232 710.5,509.5C 709.387,512.441 708.054,515.108 706.5,517.5C 708.204,511.405 709.87,505.405 711.5,499.5 Z"/></g>
<g><path style="opacity:1" fill="#022155" d="M 617.5,506.5 C 619.069,518.031 618.736,529.364 616.5,540.5C 617.417,528.985 617.75,517.651 617.5,506.5 Z"/></g>
<g><path style="opacity:0.031" fill="#061545" d="M 89.5,515.5 C 90.9313,516.78 91.5979,518.447 91.5,520.5C 89.744,519.448 89.0773,517.781 89.5,515.5 Z"/></g>
<g><path style="opacity:0.149" fill="#182046" d="M 91.5,520.5 C 92.9313,521.78 93.5979,523.447 93.5,525.5C 91.744,524.448 91.0773,522.781 91.5,520.5 Z"/></g>
<g><path style="opacity:0.086" fill="#061a4a" d="M 703.5,525.5 C 703.923,527.781 703.256,529.448 701.5,530.5C 701.402,528.447 702.069,526.78 703.5,525.5 Z"/></g>
<g><path style="opacity:0.086" fill="#111a47" d="M 94.5,528.5 C 95.1667,529.167 95.8333,529.833 96.5,530.5C 96.5,531.5 96.5,532.5 96.5,533.5C 94.744,532.448 94.0773,530.781 94.5,528.5 Z"/></g>
<g><path style="opacity:1" fill="#fafcfc" d="M 479.5,578.5 C 477.167,580.167 475.167,582.167 473.5,584.5C 470.093,586.473 466.426,587.973 462.5,589C 457.317,589.908 452.317,589.408 447.5,587.5C 444.115,585.091 441.949,581.757 441,577.5C 439.228,558.041 445.562,541.707 460,528.5C 464.857,532.601 469.524,536.934 474,541.5C 484.409,552.558 486.242,564.891 479.5,578.5 Z"/></g>
<g><path style="opacity:0.639" fill="#343e5e" d="M 701.5,530.5 C 701.662,532.527 701.495,534.527 701,536.5C 699.456,538.957 697.956,541.291 696.5,543.5C 697.137,540.544 697.637,537.544 698,534.5C 699.55,533.409 700.717,532.076 701.5,530.5 Z"/></g>
<g><path style="opacity:0.031" fill="#101c4d" d="M 96.5,534.5 C 97.9117,536.604 98.9117,538.937 99.5,541.5C 97.179,539.91 96.179,537.577 96.5,534.5 Z"/></g>
<g><path style="opacity:0.086" fill="#031749" d="M 99.5,541.5 C 100.309,543.028 100.976,544.694 101.5,546.5C 99.744,545.448 99.0773,543.781 99.5,541.5 Z"/></g>
<g><path style="opacity:1" fill="#111016" d="M 135.5,506.5 C 143.773,526.313 152.44,545.98 161.5,565.5C 150.521,546.911 141.854,527.245 135.5,506.5 Z"/></g>
<g><path style="opacity:1" fill="#6e6e6f" d="M 657.5,517.5 C 660.298,519.984 659.965,521.984 656.5,523.5C 657.718,524.803 657.385,525.803 655.5,526.5C 656.859,528.306 656.525,529.806 654.5,531C 655.031,546.446 655.364,562.28 655.5,578.5C 655.333,589.833 655.167,601.167 655,612.5C 653.385,614.011 653.385,615.344 655,616.5C 655.956,615.421 656.789,614.255 657.5,613C 658.167,612.333 658.833,612.333 659.5,613C 650.087,627.688 640.087,641.854 629.5,655.5C 629.392,657.783 628.559,659.783 627,661.5C 620.658,668.009 614.158,674.342 607.5,680.5C 611.08,675.578 615.08,670.911 619.5,666.5C 618.998,665.479 618.332,665.312 617.5,666C 616.382,667.074 615.382,668.24 614.5,669.5C 613.583,668.029 612.583,666.529 611.5,665C 614.309,663.412 614.975,661.245 613.5,658.5C 614.376,657.749 615.376,657.249 616.5,657C 615.833,656.667 615.167,656.333 614.5,656C 614.257,641.37 614.59,626.536 615.5,611.5C 614.975,610.808 614.308,610.308 613.5,610C 614.451,609.282 614.617,608.449 614,607.5C 612.667,609.5 611.333,611.5 610,613.5C 609.383,612.551 609.549,611.718 610.5,611C 609.906,610.536 609.239,610.369 608.5,610.5C 628.684,581.617 645.017,550.617 657.5,517.5 Z"/></g>
<g><path style="opacity:1" fill="#143064" d="M 582.5,542.5 C 577.827,547.422 571.994,550.422 565,551.5C 563.615,551.486 562.449,551.152 561.5,550.5C 569.263,549.783 576.263,547.116 582.5,542.5 Z"/></g>
<g><path style="opacity:0.031" fill="#07255d" d="M 696.5,544.5 C 696.938,544.435 697.272,544.601 697.5,545C 696.809,546.067 696.309,547.234 696,548.5C 695.329,549.252 694.496,549.586 693.5,549.5C 694.263,547.632 695.263,545.965 696.5,544.5 Z"/></g>
<g><path style="opacity:0.031" fill="#0b1a48" d="M 101.5,547.5 C 103.293,549.426 104.293,551.759 104.5,554.5C 102.73,553.144 101.397,551.311 100.5,549C 101.056,548.617 101.389,548.117 101.5,547.5 Z"/></g>
<g><path style="opacity:0.239" fill="#13204d" d="M 104.5,554.5 C 108.076,561.32 111.409,568.32 114.5,575.5C 109.502,569.441 106.169,562.441 104.5,554.5 Z"/></g>
<g><path style="opacity:0.086" fill="#0a2558" d="M 693.5,549.5 C 693.664,552.187 693.497,554.854 693,557.5C 688.805,562.726 686.138,568.726 685,575.5C 683.038,578.655 681.372,581.988 680,585.5C 679.329,586.252 678.496,586.586 677.5,586.5C 681.003,579.826 683.669,572.826 685.5,565.5C 686.458,565.047 687.292,564.381 688,563.5C 690.726,559.069 692.56,554.402 693.5,549.5 Z"/></g>
<g><path style="opacity:1" fill="#e3e3e3" d="M 163.5,571.5 C 170.465,582.811 177.465,594.144 184.5,605.5C 183.225,606.048 182.558,607.381 182.5,609.5C 182.878,611.135 183.544,612.635 184.5,614C 182.036,616.165 182.036,618.165 184.5,620C 183.833,620.333 183.167,620.667 182.5,621C 182.767,633.363 183.1,645.363 183.5,657C 181.968,657.7 180.968,658.866 180.5,660.5C 183.688,662.121 183.688,664.287 180.5,667C 183.128,668.626 185.461,670.626 187.5,673C 186.934,673.995 186.267,674.828 185.5,675.5C 180.167,670.167 174.833,664.833 169.5,659.5C 168.219,656.553 166.219,654.219 163.5,652.5C 162.925,650.589 161.925,648.922 160.5,647.5C 161.376,647.631 162.043,647.298 162.5,646.5C 161.626,644.253 161.292,641.92 161.5,639.5C 159.133,638.836 157.133,637.503 155.5,635.5C 156.165,633.899 156.499,632.399 156.5,631C 155.692,630.692 155.025,630.192 154.5,629.5C 155.529,629.704 156.529,629.204 157.5,628C 156.044,626.255 154.711,624.422 153.5,622.5C 153.977,621.522 154.643,620.689 155.5,620C 154.167,607.333 154.167,594.667 155.5,582C 154.426,581.261 153.759,580.261 153.5,579C 154.534,576.039 156.201,573.539 158.5,571.5C 159.167,572.833 159.833,574.167 160.5,575.5C 161.256,573.293 162.256,571.96 163.5,571.5 Z"/></g>
<g><path style="opacity:0.286" fill="#0d1e48" d="M 114.5,575.5 C 115.404,576.209 115.737,577.209 115.5,578.5C 113.519,577.895 113.185,576.895 114.5,575.5 Z"/></g>
<g><path style="opacity:1" fill="#0f1017" d="M 161.5,565.5 C 172.43,583.762 183.764,601.762 195.5,619.5C 191.351,615.196 187.684,610.53 184.5,605.5C 177.465,594.144 170.465,582.811 163.5,571.5C 162.27,569.703 161.604,567.703 161.5,565.5 Z"/></g>
<g><path style="opacity:0.149" fill="#151e47" d="M 115.5,578.5 C 119.337,584.17 122.67,590.17 125.5,596.5C 123.567,595.358 122.067,593.692 121,591.5C 118.67,587.334 116.837,583.001 115.5,578.5 Z"/></g>
<g><path style="opacity:0.086" fill="#082051" d="M 677.5,586.5 C 677.649,587.552 677.483,588.552 677,589.5C 675.406,591.526 673.906,593.526 672.5,595.5C 672.877,591.788 674.544,588.788 677.5,586.5 Z"/></g>
<g><path style="opacity:1" fill="#093e86" d="M 500.5,529.5 C 509.046,538.093 511.879,548.427 509,560.5C 503.646,582.855 489.813,597.021 467.5,603C 453.993,605.509 440.659,604.842 427.5,601C 415.38,595.945 409.38,586.778 409.5,573.5C 409.963,564.896 412.463,556.896 417,549.5C 417.708,548.619 418.542,547.953 419.5,547.5C 417.012,552.522 414.679,557.689 412.5,563C 413.167,564 413.833,565 414.5,566C 413.211,571.044 413.211,576.044 414.5,581C 413.426,581.739 412.759,582.739 412.5,584C 414.929,590.376 419.096,595.21 425,598.5C 428.167,597.333 428.333,595.833 425.5,594C 428.082,594.255 430.748,594.422 433.5,594.5C 433.5,595.5 433.5,596.5 433.5,597.5C 444.128,596.417 454.628,596.417 465,597.5C 467.264,599.983 469.597,599.983 472,597.5C 474.541,598.664 477.041,598.497 479.5,597C 475.554,594.104 471.554,593.938 467.5,596.5C 466.614,595.675 466.281,594.675 466.5,593.5C 468.675,593.318 470.675,592.651 472.5,591.5C 474.713,593.27 477.046,593.603 479.5,592.5C 478.395,591.108 477.061,589.941 475.5,589C 476.376,587.415 477.709,586.415 479.5,586C 478.789,584.745 477.956,583.579 477,582.5C 476.184,583.823 475.017,584.489 473.5,584.5C 475.167,582.167 477.167,580.167 479.5,578.5C 482.548,580.507 486.048,581.84 490,582.5C 490.689,581.643 491.522,580.977 492.5,580.5C 494.974,584.813 496.474,584.48 497,579.5C 498.135,579.273 499.302,578.94 500.5,578.5C 509.452,564.859 510.618,550.526 504,535.5C 503.667,535.833 503.333,536.167 503,536.5C 501.097,534.559 500.264,532.226 500.5,529.5 Z"/></g>
<g><path style="opacity:1" fill="#0b265a" d="M 473.5,584.5 C 473.047,585.458 472.381,586.292 471.5,587C 463.277,591.121 454.944,591.454 446.5,588C 446.728,587.601 447.062,587.435 447.5,587.5C 452.317,589.408 457.317,589.908 462.5,589C 466.426,587.973 470.093,586.473 473.5,584.5 Z"/></g>
<g><path style="opacity:0.173" fill="#092559" d="M 672.5,595.5 C 672.657,596.873 672.49,598.207 672,599.5C 670.583,601.398 669.083,603.064 667.5,604.5C 668.769,601.243 670.436,598.243 672.5,595.5 Z"/></g>
<g><path style="opacity:0.086" fill="#081745" d="M 125.5,596.5 C 128.258,599.678 130.258,603.345 131.5,607.5C 127.871,604.835 125.871,601.169 125.5,596.5 Z"/></g>
<g><path style="opacity:0.031" fill="#0e1a49" d="M 131.5,607.5 C 133.88,609.582 135.546,612.249 136.5,615.5C 134.007,613.342 132.34,610.676 131.5,607.5 Z"/></g>
<g><path style="opacity:0.173" fill="#0a2b61" d="M 667.5,604.5 C 667.313,606.564 666.813,608.564 666,610.5C 664.423,613.467 662.256,615.8 659.5,617.5C 661.919,612.991 664.586,608.658 667.5,604.5 Z"/></g>
<g><path style="opacity:0.031" fill="#011246" d="M 136.5,615.5 C 137.5,615.833 138.167,616.5 138.5,617.5C 137.167,617.5 136.5,616.833 136.5,615.5 Z"/></g>
<g><path style="opacity:0.031" fill="#061441" d="M 138.5,617.5 C 140.653,619.794 142.32,622.46 143.5,625.5C 140.155,623.98 138.489,621.313 138.5,617.5 Z"/></g>
<g><path style="opacity:1" fill="#dcdbdc" d="M 184.5,605.5 C 187.684,610.53 191.351,615.196 195.5,619.5C 206.976,635.988 219.976,651.321 234.5,665.5C 234.095,666.55 233.429,666.55 232.5,665.5C 229.85,662.349 227.016,659.349 224,656.5C 220.252,658.097 216.918,657.43 214,654.5C 212.72,654.613 211.887,655.28 211.5,656.5C 212.833,657.5 214.167,658.5 215.5,659.5C 215.331,663.082 215.331,666.582 215.5,670C 215.095,670.945 214.428,671.612 213.5,672C 216.167,673.333 216.167,674.667 213.5,676C 216.167,677.333 216.167,678.667 213.5,680C 216.167,681.333 216.167,682.667 213.5,684C 214.167,684.333 214.833,684.667 215.5,685C 215.5,687.667 215.5,690.333 215.5,693C 214.687,694.314 213.687,695.481 212.5,696.5C 214.641,698.253 213.974,699.253 210.5,699.5C 210.167,699.5 209.833,699.5 209.5,699.5C 201.194,691.86 193.194,683.86 185.5,675.5C 186.267,674.828 186.934,673.995 187.5,673C 185.461,670.626 183.128,668.626 180.5,667C 183.688,664.287 183.688,662.121 180.5,660.5C 180.968,658.866 181.968,657.7 183.5,657C 183.1,645.363 182.767,633.363 182.5,621C 183.167,620.667 183.833,620.333 184.5,620C 182.036,618.165 182.036,616.165 184.5,614C 183.544,612.635 182.878,611.135 182.5,609.5C 182.558,607.381 183.225,606.048 184.5,605.5 Z"/></g>
<g><path style="opacity:0.031" fill="#0f1b4a" d="M 143.5,625.5 C 147.83,631.446 152.163,637.446 156.5,643.5C 150.691,638.672 146.357,632.672 143.5,625.5 Z"/></g>
<g><path style="opacity:1" fill="#122f66" d="M 513.5,618.5 C 514.183,623.062 515.017,627.728 516,632.5C 517.579,634.041 519.413,635.208 521.5,636C 526.167,636.667 530.833,636.667 535.5,636C 541.874,634.596 548.207,633.096 554.5,631.5C 549.048,634.703 543.048,636.536 536.5,637C 531.167,637.667 525.833,637.667 520.5,637C 512.795,632.972 510.462,626.806 513.5,618.5 Z"/></g>
<g><path style="opacity:1" fill="#77777a" d="M 607.5,680.5 C 600.703,687.798 593.703,694.965 586.5,702C 584.783,703.559 582.783,704.392 580.5,704.5C 583.384,701.692 586.384,698.859 589.5,696C 588.953,695.075 588.287,694.242 587.5,693.5C 587.687,694.817 587.02,696.15 585.5,697.5C 583.994,696.77 582.66,696.437 581.5,696.5C 582.64,694.259 582.64,692.092 581.5,690C 583.513,688.209 583.513,686.875 581.5,686C 582.762,673.117 582.762,660.45 581.5,648C 583.283,644.882 585.45,642.049 588,639.5C 588.692,638.563 588.525,637.897 587.5,637.5C 594.882,628.786 601.882,619.786 608.5,610.5C 609.239,610.369 609.906,610.536 610.5,611C 609.549,611.718 609.383,612.551 610,613.5C 611.333,611.5 612.667,609.5 614,607.5C 614.617,608.449 614.451,609.282 613.5,610C 614.308,610.308 614.975,610.808 615.5,611.5C 614.59,626.536 614.257,641.37 614.5,656C 615.167,656.333 615.833,656.667 616.5,657C 615.376,657.249 614.376,657.749 613.5,658.5C 614.975,661.245 614.309,663.412 611.5,665C 612.583,666.529 613.583,668.029 614.5,669.5C 615.382,668.24 616.382,667.074 617.5,666C 618.332,665.312 618.998,665.479 619.5,666.5C 615.08,670.911 611.08,675.578 607.5,680.5 Z"/></g>
<g><path style="opacity:1" fill="#151518" d="M 680.5,430.5 C 681.167,430.5 681.833,430.5 682.5,430.5C 676.393,460.152 668.06,489.152 657.5,517.5C 645.017,550.617 628.684,581.617 608.5,610.5C 601.882,619.786 594.882,628.786 587.5,637.5C 573.534,654.466 558.201,670.133 541.5,684.5C 531.476,692.198 521.476,699.864 511.5,707.5C 488.466,722.868 464.466,736.534 439.5,748.5C 428.423,753.186 417.423,757.852 406.5,762.5C 403.296,763.96 399.962,764.46 396.5,764C 384.481,759.165 372.481,754.331 360.5,749.5C 352.928,745.642 345.261,741.976 337.5,738.5C 323.225,730.872 309.225,722.872 295.5,714.5C 289.446,709.783 283.113,705.45 276.5,701.5C 262.231,689.904 248.231,677.904 234.5,665.5C 219.976,651.321 206.976,635.988 195.5,619.5C 248.594,686.517 315.927,733.851 397.5,761.5C 397.833,761.5 398.167,761.5 398.5,761.5C 398.5,762.167 398.833,762.5 399.5,762.5C 555.079,704.562 648.746,593.895 680.5,430.5 Z"/></g>
<g><path style="opacity:0.086" fill="#07245b" d="M 659.5,617.5 C 659.481,619.06 659.148,620.56 658.5,622C 655.985,625.844 653.485,629.677 651,633.5C 645.713,641.048 639.713,648.048 633,654.5C 631.033,656.901 629.533,659.567 628.5,662.5C 614.833,676.167 601.167,689.833 587.5,703.5C 584.55,705.74 581.216,707.073 577.5,707.5C 578.306,706.272 579.306,705.272 580.5,704.5C 582.783,704.392 584.783,703.559 586.5,702C 593.703,694.965 600.703,687.798 607.5,680.5C 614.158,674.342 620.658,668.009 627,661.5C 628.559,659.783 629.392,657.783 629.5,655.5C 632.797,652.704 635.964,649.704 639,646.5C 646.085,636.931 652.918,627.264 659.5,617.5 Z"/></g>
<g><path style="opacity:0.086" fill="#151f4b" d="M 156.5,643.5 C 158.264,644.326 159.598,645.659 160.5,647.5C 161.925,648.922 162.925,650.589 163.5,652.5C 160.023,650.36 157.689,647.36 156.5,643.5 Z"/></g>
<g><path style="opacity:0.149" fill="#05133f" d="M 163.5,652.5 C 166.219,654.219 168.219,656.553 169.5,659.5C 166.092,658.422 164.092,656.089 163.5,652.5 Z"/></g>
<g><path style="opacity:1" fill="#d3d2d2" d="M 234.5,665.5 C 248.231,677.904 262.231,689.904 276.5,701.5C 275.078,701.291 273.745,700.791 272.5,700C 265.667,694.5 258.833,689 252,683.5C 251.167,684.333 250.333,685.167 249.5,686C 250.833,687.333 250.833,688.667 249.5,690C 250.167,690.333 250.833,690.667 251.5,691C 251.591,693.303 250.257,694.97 247.5,696C 247.196,704.032 247.529,711.866 248.5,719.5C 246.056,721.293 246.556,722.293 250,722.5C 251.107,722.415 252.107,722.081 253,721.5C 253.137,724.68 252.637,727.68 251.5,730.5C 250.833,730.5 250.167,730.5 249.5,730.5C 248.71,729.599 247.71,728.932 246.5,728.5C 244.122,726.122 241.455,724.122 238.5,722.5C 235.399,719.067 231.732,716.4 227.5,714.5C 227.167,713.5 226.5,712.833 225.5,712.5C 223.122,710.122 220.455,708.122 217.5,706.5C 216.415,704.413 214.749,703.08 212.5,702.5C 211.833,701.5 211.167,700.5 210.5,699.5C 213.974,699.253 214.641,698.253 212.5,696.5C 213.687,695.481 214.687,694.314 215.5,693C 215.5,690.333 215.5,687.667 215.5,685C 214.833,684.667 214.167,684.333 213.5,684C 216.167,682.667 216.167,681.333 213.5,680C 216.167,678.667 216.167,677.333 213.5,676C 216.167,674.667 216.167,673.333 213.5,672C 214.428,671.612 215.095,670.945 215.5,670C 215.331,666.582 215.331,663.082 215.5,659.5C 214.167,658.5 212.833,657.5 211.5,656.5C 211.887,655.28 212.72,654.613 214,654.5C 216.918,657.43 220.252,658.097 224,656.5C 227.016,659.349 229.85,662.349 232.5,665.5C 233.429,666.55 234.095,666.55 234.5,665.5 Z"/></g>
<g><path style="opacity:1" fill="#828284" d="M 587.5,637.5 C 588.525,637.897 588.692,638.563 588,639.5C 585.45,642.049 583.283,644.882 581.5,648C 582.762,660.45 582.762,673.117 581.5,686C 583.513,686.875 583.513,688.209 581.5,690C 582.64,692.092 582.64,694.259 581.5,696.5C 582.66,696.437 583.994,696.77 585.5,697.5C 587.02,696.15 587.687,694.817 587.5,693.5C 588.287,694.242 588.953,695.075 589.5,696C 586.384,698.859 583.384,701.692 580.5,704.5C 579.306,705.272 578.306,706.272 577.5,707.5C 577.19,709.144 576.19,710.144 574.5,710.5C 569.573,713.42 564.906,716.754 560.5,720.5C 558.228,721.441 556.228,722.774 554.5,724.5C 552.911,723.379 551.244,723.546 549.5,725C 546.346,727.743 543.012,730.243 539.5,732.5C 537.964,731.064 536.297,730.231 534.5,730C 535.465,718.553 535.465,707.219 534.5,696C 535,695.5 535.5,695 536,694.5C 536.419,695.672 537.085,696.672 538,697.5C 538.333,707.833 538.667,718.167 539,728.5C 539.821,716.591 539.654,704.757 538.5,693C 539.255,690.825 540.088,688.659 541,686.5C 541.718,687.451 542.551,687.617 543.5,687C 542.619,686.292 541.953,685.458 541.5,684.5C 558.201,670.133 573.534,654.466 587.5,637.5 Z"/></g>
<g><path style="opacity:1" fill="#cac9ca" d="M 276.5,701.5 C 283.113,705.45 289.446,709.783 295.5,714.5C 295.44,715.043 295.107,715.376 294.5,715.5C 293.186,714.687 292.019,713.687 291,712.5C 290.25,713.126 289.416,713.626 288.5,714C 289.956,714.423 290.456,715.256 290,716.5C 288.732,716.384 287.398,716.051 286,715.5C 283.266,716.362 283.099,717.195 285.5,718C 284.692,718.308 284.025,718.808 283.5,719.5C 285.433,719.993 287.766,720.493 290.5,721C 288.892,721.469 287.225,722.135 285.5,723C 286.833,727 286.833,731 285.5,735C 287.434,736.729 287.434,738.729 285.5,741C 287.394,742.101 288.061,743.434 287.5,745C 286.833,745.667 286.167,746.333 285.5,747C 287.101,747.273 288.601,747.773 290,748.5C 290.333,748.167 290.667,747.833 291,747.5C 292.15,751.643 294.65,754.476 298.5,756C 297.956,756.717 297.289,757.217 296.5,757.5C 295.833,757.5 295.167,757.5 294.5,757.5C 292.819,755.992 290.819,754.992 288.5,754.5C 287.656,752.241 285.989,751.241 283.5,751.5C 282.71,750.599 281.71,749.932 280.5,749.5C 279.101,748.11 277.434,747.11 275.5,746.5C 274.486,745.326 273.153,744.66 271.5,744.5C 270.508,744.672 269.842,744.338 269.5,743.5C 269.167,742.5 268.5,741.833 267.5,741.5C 266.209,741.737 265.209,741.404 264.5,740.5C 261.725,737.395 258.392,735.062 254.5,733.5C 253.306,732.728 252.306,731.728 251.5,730.5C 252.637,727.68 253.137,724.68 253,721.5C 252.107,722.081 251.107,722.415 250,722.5C 246.556,722.293 246.056,721.293 248.5,719.5C 247.529,711.866 247.196,704.032 247.5,696C 250.257,694.97 251.591,693.303 251.5,691C 250.833,690.667 250.167,690.333 249.5,690C 250.833,688.667 250.833,687.333 249.5,686C 250.333,685.167 251.167,684.333 252,683.5C 258.833,689 265.667,694.5 272.5,700C 273.745,700.791 275.078,701.291 276.5,701.5 Z"/></g>
<g><path style="opacity:0.086" fill="#0a1945" d="M 169.5,659.5 C 174.833,664.833 180.167,670.167 185.5,675.5C 193.194,683.86 201.194,691.86 209.5,699.5C 206.385,697.769 203.385,695.769 200.5,693.5C 191.833,684.833 183.167,676.167 174.5,667.5C 172.789,664.804 171.122,662.138 169.5,659.5 Z"/></g>
<g><path style="opacity:0.031" fill="#021041" d="M 209.5,699.5 C 209.833,699.5 210.167,699.5 210.5,699.5C 211.167,700.5 211.833,701.5 212.5,702.5C 210.5,702.5 209.5,701.5 209.5,699.5 Z"/></g>
<g><path style="opacity:0.149" fill="#081640" d="M 212.5,702.5 C 214.749,703.08 216.415,704.413 217.5,706.5C 214.931,706.262 213.265,704.929 212.5,702.5 Z"/></g>
<g><path style="opacity:1" fill="#8c8b8d" d="M 541.5,684.5 C 541.953,685.458 542.619,686.292 543.5,687C 542.551,687.617 541.718,687.451 541,686.5C 540.088,688.659 539.255,690.825 538.5,693C 539.654,704.757 539.821,716.591 539,728.5C 538.667,718.167 538.333,707.833 538,697.5C 537.085,696.672 536.419,695.672 536,694.5C 535.5,695 535,695.5 534.5,696C 535.465,707.219 535.465,718.553 534.5,730C 536.297,730.231 537.964,731.064 539.5,732.5C 543.012,730.243 546.346,727.743 549.5,725C 551.244,723.546 552.911,723.379 554.5,724.5C 549.796,727.846 545.129,731.179 540.5,734.5C 538.973,734.427 537.973,735.094 537.5,736.5C 535.435,736.953 533.768,737.953 532.5,739.5C 531.29,739.932 530.29,740.599 529.5,741.5C 527.435,741.953 525.768,742.953 524.5,744.5C 522.545,744.799 521.211,745.799 520.5,747.5C 518.847,747.66 517.514,748.326 516.5,749.5C 514.833,750.167 513.167,750.833 511.5,751.5C 510.359,750.661 509.026,749.994 507.5,749.5C 504.047,752.075 500.714,751.908 497.5,749C 498.167,748.333 498.833,747.667 499.5,747C 499.5,739 499.5,731 499.5,723C 496.833,722.333 496.833,721.667 499.5,721C 498.643,720.311 497.977,719.478 497.5,718.5C 500.5,716.5 503.5,714.5 506.5,712.5C 509.028,713.498 509.028,714.331 506.5,715C 507.5,715.667 508.5,715.667 509.5,715C 509.888,713.475 509.888,711.808 509.5,710C 510.672,709.581 511.672,708.915 512.5,708C 512.272,707.601 511.938,707.435 511.5,707.5C 521.476,699.864 531.476,692.198 541.5,684.5 Z"/></g>
<g><path style="opacity:0.031" fill="#031547" d="M 217.5,706.5 C 220.455,708.122 223.122,710.122 225.5,712.5C 222.011,711.687 219.344,709.687 217.5,706.5 Z"/></g>
<g><path style="opacity:0.031" fill="#011246" d="M 225.5,712.5 C 226.5,712.833 227.167,713.5 227.5,714.5C 226.167,714.5 225.5,713.833 225.5,712.5 Z"/></g>
<g><path style="opacity:0.086" fill="#0b194b" d="M 227.5,714.5 C 231.732,716.4 235.399,719.067 238.5,722.5C 237.448,722.649 236.448,722.483 235.5,722C 232.895,719.244 230.228,716.744 227.5,714.5 Z"/></g>
<g><path style="opacity:0.239" fill="#182350" d="M 238.5,722.5 C 241.455,724.122 244.122,726.122 246.5,728.5C 242.98,727.647 240.313,725.647 238.5,722.5 Z"/></g>
<g><path style="opacity:1" fill="#c1c0c1" d="M 295.5,714.5 C 309.225,722.872 323.225,730.872 337.5,738.5C 336.375,739.014 335.209,739.347 334,739.5C 333.558,737.321 332.558,736.655 331,737.5C 329.54,735.578 327.873,734.911 326,735.5C 325.667,734.833 325.333,734.167 325,733.5C 323.946,735.754 322.446,736.087 320.5,734.5C 319.269,735.651 319.269,736.817 320.5,738C 319.833,739.333 318.833,740.333 317.5,741C 320.167,741.667 320.167,742.333 317.5,743C 320.167,743.667 320.167,744.333 317.5,745C 320.167,745.667 320.167,746.333 317.5,747C 320.167,747.667 320.167,748.333 317.5,749C 320.167,749.667 320.167,750.333 317.5,751C 320.167,751.667 320.167,752.333 317.5,753C 320.167,753.667 320.167,754.333 317.5,755C 320.167,755.667 320.167,756.333 317.5,757C 320.167,757.667 320.167,758.333 317.5,759C 319.604,761.238 321.938,762.238 324.5,762C 322.616,762.216 320.949,762.883 319.5,764C 321,766.167 322.167,766 323,763.5C 323.985,766.585 326.152,768.085 329.5,768C 326.833,768.667 326.833,769.333 329.5,770C 328.692,771.706 327.359,772.539 325.5,772.5C 324.71,771.599 323.71,770.932 322.5,770.5C 322.167,770.5 321.833,770.5 321.5,770.5C 319.351,769.264 317.018,768.264 314.5,767.5C 313.329,766.655 311.995,765.989 310.5,765.5C 308.75,764.13 306.75,763.13 304.5,762.5C 301.833,760.833 299.167,759.167 296.5,757.5C 297.289,757.217 297.956,756.717 298.5,756C 294.65,754.476 292.15,751.643 291,747.5C 290.667,747.833 290.333,748.167 290,748.5C 288.601,747.773 287.101,747.273 285.5,747C 286.167,746.333 286.833,745.667 287.5,745C 288.061,743.434 287.394,742.101 285.5,741C 287.434,738.729 287.434,736.729 285.5,735C 286.833,731 286.833,727 285.5,723C 287.225,722.135 288.892,721.469 290.5,721C 287.766,720.493 285.433,719.993 283.5,719.5C 284.025,718.808 284.692,718.308 285.5,718C 283.099,717.195 283.266,716.362 286,715.5C 287.398,716.051 288.732,716.384 290,716.5C 290.456,715.256 289.956,714.423 288.5,714C 289.416,713.626 290.25,713.126 291,712.5C 292.019,713.687 293.186,714.687 294.5,715.5C 295.107,715.376 295.44,715.043 295.5,714.5 Z"/></g>
<g><path style="opacity:0.639" fill="#535a63" d="M 560.5,720.5 C 554.959,726.618 548.292,731.285 540.5,734.5C 545.129,731.179 549.796,727.846 554.5,724.5C 556.228,722.774 558.228,721.441 560.5,720.5 Z"/></g>
<g><path style="opacity:0.086" fill="#092255" d="M 574.5,710.5 C 568.827,715.668 563.16,721.168 557.5,727C 553.493,729.403 549.493,731.903 545.5,734.5C 542.92,735.549 540.254,736.216 537.5,736.5C 537.973,735.094 538.973,734.427 540.5,734.5C 548.292,731.285 554.959,726.618 560.5,720.5C 564.906,716.754 569.573,713.42 574.5,710.5 Z"/></g>
<g><path style="opacity:0.086" fill="#011348" d="M 246.5,728.5 C 247.71,728.932 248.71,729.599 249.5,730.5C 247.821,730.715 246.821,730.048 246.5,728.5 Z"/></g>
<g><path style="opacity:0.031" fill="#031547" d="M 249.5,730.5 C 250.167,730.5 250.833,730.5 251.5,730.5C 252.306,731.728 253.306,732.728 254.5,733.5C 252.067,733.727 250.401,732.727 249.5,730.5 Z"/></g>
<g><path style="opacity:0.998" fill="#b8b8b8" d="M 337.5,738.5 C 345.261,741.976 352.928,745.642 360.5,749.5C 359.472,750.074 358.472,750.407 357.5,750.5C 358.525,754.585 359.191,759.085 359.5,764C 359.167,767.167 358.833,770.333 358.5,773.5C 356.013,773.218 353.347,773.218 350.5,773.5C 350.413,776.598 350.913,776.932 352,774.5C 353.333,774.5 354.667,774.5 356,774.5C 356.324,776.569 357.158,776.902 358.5,775.5C 359.719,776.646 361.052,777.646 362.5,778.5C 359.365,777.863 356.365,778.529 353.5,780.5C 354.791,781.527 354.791,782.527 353.5,783.5C 352.833,783.5 352.167,783.5 351.5,783.5C 350.486,782.326 349.153,781.66 347.5,781.5C 347.167,781.5 346.833,781.5 346.5,781.5C 345.609,780.89 344.609,780.557 343.5,780.5C 341.62,780.771 340.287,780.104 339.5,778.5C 335.818,776.987 332.151,775.32 328.5,773.5C 327.209,773.737 326.209,773.404 325.5,772.5C 327.359,772.539 328.692,771.706 329.5,770C 326.833,769.333 326.833,768.667 329.5,768C 326.152,768.085 323.985,766.585 323,763.5C 322.167,766 321,766.167 319.5,764C 320.949,762.883 322.616,762.216 324.5,762C 321.938,762.238 319.604,761.238 317.5,759C 320.167,758.333 320.167,757.667 317.5,757C 320.167,756.333 320.167,755.667 317.5,755C 320.167,754.333 320.167,753.667 317.5,753C 320.167,752.333 320.167,751.667 317.5,751C 320.167,750.333 320.167,749.667 317.5,749C 320.167,748.333 320.167,747.667 317.5,747C 320.167,746.333 320.167,745.667 317.5,745C 320.167,744.333 320.167,743.667 317.5,743C 320.167,742.333 320.167,741.667 317.5,741C 318.833,740.333 319.833,739.333 320.5,738C 319.269,736.817 319.269,735.651 320.5,734.5C 322.446,736.087 323.946,735.754 325,733.5C 325.333,734.167 325.667,734.833 326,735.5C 327.873,734.911 329.54,735.578 331,737.5C 332.558,736.655 333.558,737.321 334,739.5C 335.209,739.347 336.375,739.014 337.5,738.5 Z"/></g>
<g><path style="opacity:0.149" fill="#0c1846" d="M 254.5,733.5 C 258.392,735.062 261.725,737.395 264.5,740.5C 263.448,740.649 262.448,740.483 261.5,740C 259.093,737.817 256.76,735.65 254.5,733.5 Z"/></g>
<g><path style="opacity:0.031" fill="#011246" d="M 537.5,736.5 C 536.514,738.408 534.848,739.408 532.5,739.5C 533.768,737.953 535.435,736.953 537.5,736.5 Z"/></g>
<g><path style="opacity:1" fill="#9a999b" d="M 511.5,707.5 C 511.938,707.435 512.272,707.601 512.5,708C 511.672,708.915 510.672,709.581 509.5,710C 509.888,711.808 509.888,713.475 509.5,715C 508.5,715.667 507.5,715.667 506.5,715C 509.028,714.331 509.028,713.498 506.5,712.5C 503.5,714.5 500.5,716.5 497.5,718.5C 497.977,719.478 498.643,720.311 499.5,721C 496.833,721.667 496.833,722.333 499.5,723C 499.5,731 499.5,739 499.5,747C 498.833,747.667 498.167,748.333 497.5,749C 500.714,751.908 504.047,752.075 507.5,749.5C 509.026,749.994 510.359,750.661 511.5,751.5C 509.565,752.15 507.565,752.483 505.5,752.5C 505.473,754.199 504.806,755.533 503.5,756.5C 501.566,757.11 499.899,758.11 498.5,759.5C 497.895,761.481 496.895,761.815 495.5,760.5C 494.29,760.932 493.29,761.599 492.5,762.5C 490.68,764.448 488.346,765.448 485.5,765.5C 483.283,766.369 480.95,766.702 478.5,766.5C 478.5,767.5 478.5,768.5 478.5,769.5C 477.209,769.263 476.209,769.596 475.5,770.5C 475.167,770.5 474.833,770.5 474.5,770.5C 472.25,771.13 470.25,772.13 468.5,773.5C 467.713,775.104 466.38,775.771 464.5,775.5C 462.694,776.024 461.028,776.691 459.5,777.5C 457.784,778.971 455.784,779.971 453.5,780.5C 451.447,780.402 449.78,781.069 448.5,782.5C 447.791,783.404 446.791,783.737 445.5,783.5C 443.694,784.024 442.028,784.691 440.5,785.5C 439.791,786.404 438.791,786.737 437.5,786.5C 435.694,787.024 434.028,787.691 432.5,788.5C 431.365,790.213 429.698,790.88 427.5,790.5C 428.479,788.855 429.812,787.521 431.5,786.5C 429.587,785.949 427.587,785.782 425.5,786C 426.167,778 426.833,770 427.5,762C 426.366,760.984 426.699,760.317 428.5,760C 426.581,758.066 425.081,758.233 424,760.5C 422.372,759.181 422.539,757.848 424.5,756.5C 428.896,754.885 433.062,752.885 437,750.5C 437.333,751.167 437.667,751.833 438,752.5C 438.318,750.939 439.151,749.772 440.5,749C 440.272,748.601 439.938,748.435 439.5,748.5C 464.466,736.534 488.466,722.868 511.5,707.5 Z"/></g>
<g><path style="opacity:0.031" fill="#021040" d="M 532.5,739.5 C 532.179,741.048 531.179,741.715 529.5,741.5C 530.29,740.599 531.29,739.932 532.5,739.5 Z"/></g>
<g><path style="opacity:0.031" fill="#011246" d="M 267.5,741.5 C 268.5,741.833 269.167,742.5 269.5,743.5C 268.167,743.5 267.5,742.833 267.5,741.5 Z"/></g>
<g><path style="opacity:0.031" fill="#011246" d="M 529.5,741.5 C 528.514,743.408 526.848,744.408 524.5,744.5C 525.768,742.953 527.435,741.953 529.5,741.5 Z"/></g>
<g><path style="opacity:0.149" fill="#041645" d="M 271.5,744.5 C 273.153,744.66 274.486,745.326 275.5,746.5C 273.62,746.771 272.287,746.104 271.5,744.5 Z"/></g>
<g><path style="opacity:0.086" fill="#011246" d="M 524.5,744.5 C 523.789,746.201 522.455,747.201 520.5,747.5C 521.211,745.799 522.545,744.799 524.5,744.5 Z"/></g>
<g><path style="opacity:0.239" fill="#1f2854" d="M 275.5,746.5 C 277.434,747.11 279.101,748.11 280.5,749.5C 278.067,749.727 276.401,748.727 275.5,746.5 Z"/></g>
<g><path style="opacity:0.149" fill="#030e3c" d="M 520.5,747.5 C 519.713,749.104 518.38,749.771 516.5,749.5C 517.514,748.326 518.847,747.66 520.5,747.5 Z"/></g>
<g><path style="opacity:0.086" fill="#011348" d="M 280.5,749.5 C 281.71,749.932 282.71,750.599 283.5,751.5C 281.821,751.715 280.821,751.048 280.5,749.5 Z"/></g>
<g><path style="opacity:0.427" fill="#494768" d="M 283.5,751.5 C 285.989,751.241 287.656,752.241 288.5,754.5C 286.778,753.179 285.111,752.179 283.5,751.5 Z"/></g>
<g><path style="opacity:0.031" fill="#011247" d="M 516.5,749.5 C 515.359,751.088 513.859,752.421 512,753.5C 511.601,753.272 511.435,752.938 511.5,752.5C 511.5,752.167 511.5,751.833 511.5,751.5C 513.167,750.833 514.833,750.167 516.5,749.5 Z"/></g>
<g><path style="opacity:0.427" fill="#55516a" d="M 511.5,751.5 C 511.5,751.833 511.5,752.167 511.5,752.5C 509,754.167 506.333,755.5 503.5,756.5C 504.806,755.533 505.473,754.199 505.5,752.5C 507.565,752.483 509.565,752.15 511.5,751.5 Z"/></g>
<g><path style="opacity:0.031" fill="#051749" d="M 288.5,754.5 C 290.819,754.992 292.819,755.992 294.5,757.5C 291.784,757.614 289.784,756.614 288.5,754.5 Z"/></g>
<g><path style="opacity:1" fill="#a4a4a6" d="M 439.5,748.5 C 439.938,748.435 440.272,748.601 440.5,749C 439.151,749.772 438.318,750.939 438,752.5C 437.667,751.833 437.333,751.167 437,750.5C 433.062,752.885 428.896,754.885 424.5,756.5C 422.539,757.848 422.372,759.181 424,760.5C 425.081,758.233 426.581,758.066 428.5,760C 426.699,760.317 426.366,760.984 427.5,762C 426.833,770 426.167,778 425.5,786C 427.587,785.782 429.587,785.949 431.5,786.5C 429.812,787.521 428.479,788.855 427.5,790.5C 423.346,793.213 418.679,794.546 413.5,794.5C 411.055,795.312 408.722,796.312 406.5,797.5C 405.426,795.716 403.76,794.549 401.5,794C 403.792,792.803 404.125,791.137 402.5,789C 402.905,788.055 403.572,787.388 404.5,787C 401.833,786.333 401.833,785.667 404.5,785C 402.011,780.453 402.011,775.786 404.5,771C 402.875,770.147 402.542,769.147 403.5,768C 402.376,767.751 401.376,767.251 400.5,766.5C 403.279,765.293 405.279,763.96 406.5,762.5C 417.423,757.852 428.423,753.186 439.5,748.5 Z"/></g>
<g><path style="opacity:0.031" fill="#011246" d="M 503.5,756.5 C 502.599,758.727 500.933,759.727 498.5,759.5C 499.899,758.11 501.566,757.11 503.5,756.5 Z"/></g>
<g><path style="opacity:0.086" fill="#041749" d="M 294.5,757.5 C 295.167,757.5 295.833,757.5 296.5,757.5C 299.167,759.167 301.833,760.833 304.5,762.5C 300.243,762.325 296.91,760.659 294.5,757.5 Z"/></g>
<g><path style="opacity:1" fill="#adadae" d="M 360.5,749.5 C 372.481,754.331 384.481,759.165 396.5,764C 399.962,764.46 403.296,763.96 406.5,762.5C 405.279,763.96 403.279,765.293 400.5,766.5C 401.376,767.251 402.376,767.751 403.5,768C 402.542,769.147 402.875,770.147 404.5,771C 402.011,775.786 402.011,780.453 404.5,785C 401.833,785.667 401.833,786.333 404.5,787C 403.572,787.388 402.905,788.055 402.5,789C 404.125,791.137 403.792,792.803 401.5,794C 403.76,794.549 405.426,795.716 406.5,797.5C 404.597,797.796 402.93,798.463 401.5,799.5C 398.833,799.5 396.167,799.5 393.5,799.5C 393.5,799.167 393.5,798.833 393.5,798.5C 391.972,797.691 390.306,797.024 388.5,796.5C 386.972,795.691 385.306,795.024 383.5,794.5C 379.468,794.577 375.801,793.577 372.5,791.5C 370.064,790.129 367.397,789.129 364.5,788.5C 363.486,787.326 362.153,786.66 360.5,786.5C 358.901,786.768 357.568,786.434 356.5,785.5C 355.5,784.833 354.5,784.167 353.5,783.5C 354.791,782.527 354.791,781.527 353.5,780.5C 356.365,778.529 359.365,777.863 362.5,778.5C 361.052,777.646 359.719,776.646 358.5,775.5C 357.158,776.902 356.324,776.569 356,774.5C 354.667,774.5 353.333,774.5 352,774.5C 350.913,776.932 350.413,776.598 350.5,773.5C 353.347,773.218 356.013,773.218 358.5,773.5C 358.833,770.333 359.167,767.167 359.5,764C 359.191,759.085 358.525,754.585 357.5,750.5C 358.472,750.407 359.472,750.074 360.5,749.5 Z"/></g>
<g><path style="opacity:0.031" fill="#021040" d="M 495.5,760.5 C 495.179,762.048 494.179,762.715 492.5,762.5C 493.29,761.599 494.29,760.932 495.5,760.5 Z"/></g>
<g><path style="opacity:0.031" fill="#021142" d="M 304.5,762.5 C 306.75,763.13 308.75,764.13 310.5,765.5C 307.784,765.614 305.784,764.614 304.5,762.5 Z"/></g>
<g><path style="opacity:0.086" fill="#011346" d="M 310.5,765.5 C 311.995,765.989 313.329,766.655 314.5,767.5C 312.517,767.843 311.183,767.176 310.5,765.5 Z"/></g>
<g><path style="opacity:0.427" fill="#4a4767" d="M 485.5,765.5 C 484.359,767.088 482.859,768.421 481,769.5C 480.667,769.167 480.333,768.833 480,768.5C 478.951,770.107 477.451,770.773 475.5,770.5C 476.209,769.596 477.209,769.263 478.5,769.5C 478.5,768.5 478.5,767.5 478.5,766.5C 480.95,766.702 483.283,766.369 485.5,765.5 Z"/></g>
<g><path style="opacity:0.031" fill="#061442" d="M 314.5,767.5 C 317.018,768.264 319.351,769.264 321.5,770.5C 318.423,770.821 316.09,769.821 314.5,767.5 Z"/></g>
<g><path style="opacity:0.086" fill="#011348" d="M 322.5,770.5 C 323.71,770.932 324.71,771.599 325.5,772.5C 323.821,772.715 322.821,772.048 322.5,770.5 Z"/></g>
<g><path style="opacity:0.031" fill="#021143" d="M 474.5,770.5 C 473.216,772.614 471.216,773.614 468.5,773.5C 470.25,772.13 472.25,771.13 474.5,770.5 Z"/></g>
<g><path style="opacity:0.031" fill="#031447" d="M 328.5,773.5 C 332.151,775.32 335.818,776.987 339.5,778.5C 334.892,778.463 331.226,776.796 328.5,773.5 Z"/></g>
<g><path style="opacity:0.031" fill="#011349" d="M 464.5,775.5 C 463.448,777.256 461.781,777.923 459.5,777.5C 461.028,776.691 462.694,776.024 464.5,775.5 Z"/></g>
<g><path style="opacity:0.031" fill="#071647" d="M 343.5,780.5 C 344.609,780.557 345.609,780.89 346.5,781.5C 345.221,782.715 344.221,782.382 343.5,780.5 Z"/></g>
<g><path style="opacity:0.031" fill="#031b55" d="M 453.5,780.5 C 452.365,782.213 450.698,782.88 448.5,782.5C 449.78,781.069 451.447,780.402 453.5,780.5 Z"/></g>
<g><path style="opacity:0.149" fill="#1e2047" d="M 347.5,781.5 C 349.153,781.66 350.486,782.326 351.5,783.5C 349.62,783.771 348.287,783.104 347.5,781.5 Z"/></g>
<g><path style="opacity:0.031" fill="#03154a" d="M 351.5,783.5 C 352.167,783.5 352.833,783.5 353.5,783.5C 354.5,784.167 355.5,784.833 356.5,785.5C 354.219,785.923 352.552,785.256 351.5,783.5 Z"/></g>
<g><path style="opacity:0.031" fill="#011349" d="M 445.5,783.5 C 444.448,785.256 442.781,785.923 440.5,785.5C 442.028,784.691 443.694,784.024 445.5,783.5 Z"/></g>
<g><path style="opacity:0.086" fill="#20234e" d="M 360.5,786.5 C 362.153,786.66 363.486,787.326 364.5,788.5C 362.62,788.771 361.287,788.104 360.5,786.5 Z"/></g>
<g><path style="opacity:0.086" fill="#011345" d="M 437.5,786.5 C 436.448,788.256 434.781,788.923 432.5,788.5C 434.028,787.691 435.694,787.024 437.5,786.5 Z"/></g>
<g><path style="opacity:0.031" fill="#021549" d="M 364.5,788.5 C 367.397,789.129 370.064,790.129 372.5,791.5C 369.189,791.693 366.522,790.693 364.5,788.5 Z"/></g>
<g><path style="opacity:0.086" fill="#011243" d="M 383.5,794.5 C 385.306,795.024 386.972,795.691 388.5,796.5C 386.219,796.923 384.552,796.256 383.5,794.5 Z"/></g>
<g><path style="opacity:0.031" fill="#011349" d="M 388.5,796.5 C 390.306,797.024 391.972,797.691 393.5,798.5C 391.219,798.923 389.552,798.256 388.5,796.5 Z"/></g>
<g><path style="opacity:0.031" fill="#021347" d="M 413.5,794.5 C 411.364,796.961 408.697,798.627 405.5,799.5C 404.167,799.5 402.833,799.5 401.5,799.5C 402.93,798.463 404.597,797.796 406.5,797.5C 408.722,796.312 411.055,795.312 413.5,794.5 Z"/></g>
</svg>
